<?xml version="1.0" encoding="utf-8"?><svg xmlns="http://www.w3.org/2000/svg" xmlns:xlink="http://www.w3.org/1999/xlink"><symbol viewBox="0 0 12 7" id="arrow-down" xmlns="http://www.w3.org/2000/svg"><path d="M1 .5l5 5 5-5"/></symbol><symbol viewBox="0 0 11 17" id="arrow-left" xmlns="http://www.w3.org/2000/svg"><path d="M1.103.208a.708.708 0 000 1.001L8.394 8.5l-7.29 7.29a.708.708 0 101.001 1.002l7.792-7.791a.707.707 0 000-1.002L2.105.208a.708.708 0 00-1.002 0z"/></symbol><symbol viewBox="0 0 11 17" id="arrow-right" xmlns="http://www.w3.org/2000/svg"><path d="M9.897 16.792a.708.708 0 000-1.001L2.606 8.5l7.29-7.29a.708.708 0 10-1-1.002L1.103 7.999a.706.706 0 000 1.002l7.791 7.791a.708.708 0 001.002 0z"/></symbol><symbol viewBox="0 0 64 64" id="auction" xmlns="http://www.w3.org/2000/svg"><g clip-path="url(#adclip0)"><path d="M14.722 21.793a1.25 1.25 0 10-1.768 1.77 1.25 1.25 0 001.768-1.77zM31.65 55.965a4.341 4.341 0 00.849-2.592A4.38 4.38 0 0028.124 49H6.874a4.345 4.345 0 00-3.093 1.28A4.345 4.345 0 002.5 53.374c0 .969.317 1.865.852 2.59A6.255 6.255 0 000 61.498v1.25c0 .69.56 1.25 1.25 1.25h32.499c.69 0 1.25-.56 1.25-1.25v-1.25c0-2.4-1.36-4.486-3.35-5.533zM5.549 52.047a1.863 1.863 0 011.326-.549h21.25A1.877 1.877 0 0129.45 54.7a1.862 1.862 0 01-1.326.55H6.874a1.877 1.877 0 01-1.325-3.202zm-3.05 9.451a3.754 3.754 0 013.75-3.75h22.5a3.754 3.754 0 013.75 3.75h-30z"/><path d="M62.836 52.516a7.869 7.869 0 00-1.506-1.73l-5.84-5.094a1.264 1.264 0 00-.498-.433l-3.532-3.08-16.349-14.262a3.719 3.719 0 001.038-2.588 3.727 3.727 0 00-2.135-3.382l1.512-1.513c.423.112.857.17 1.292.17 1.28 0 2.56-.487 3.535-1.462a4.968 4.968 0 001.465-3.536c0-1.335-.52-2.59-1.465-3.535L29.747 1.465A4.968 4.968 0 0026.211 0c-1.335 0-2.59.52-3.535 1.465a5.001 5.001 0 00-1.292 4.827l-15.09 15.09a5.083 5.083 0 00-1.295-.169c-1.336 0-2.591.52-3.535 1.464a5.006 5.006 0 000 7.071L12.07 40.354a4.985 4.985 0 003.536 1.462c1.28 0 2.56-.487 3.535-1.462a5.002 5.002 0 001.292-4.827l1.51-1.51c.181.38.427.729.733 1.034a3.726 3.726 0 002.652 1.099c.972 0 1.886-.368 2.587-1.036L45.328 55.12a1.26 1.26 0 00.24.275l5.188 5.962A7.435 7.435 0 0056.45 64c.348 0 .7-.024 1.052-.073 2.354-.326 4.388-1.734 5.58-3.864 1.307-2.334 1.21-5.297-.246-7.547zM24.444 3.233A2.484 2.484 0 0126.21 2.5c.668 0 1.296.26 1.768.733l10.606 10.606c.473.472.733 1.1.733 1.768a2.502 2.502 0 01-4.267 1.768L24.444 6.767a2.502 2.502 0 010-3.535zm-7.07 35.353a2.503 2.503 0 01-3.536 0L3.232 27.98a2.503 2.503 0 010-3.536 2.482 2.482 0 011.767-.73c.668 0 1.295.259 1.767.73l10.607 10.608a2.5 2.5 0 010 3.534zm5.262-8.797l-3.495 3.495L8.534 22.677 22.676 8.535l10.607 10.607-3.502 3.502a1.69 1.69 0 00-.034.033l-7.067 7.067-.044.045zm4.464 2.607l-.008.008-.88.88c-.236.236-.55.366-.884.366-.334 0-.648-.13-.884-.366a1.243 1.243 0 01-.367-.885c0-.327.125-.635.352-.867l7.1-7.1a1.255 1.255 0 011.754.012c.236.237.366.55.366.885 0 .334-.13.648-.366.884l-.875.875a1 1 0 00-.018.018l-5.29 5.29zm2.588.947l3.653-3.653L48.81 43.182l-5.644 5.644-13.477-15.483zM44.81 50.716l5.887-5.887 1.889 1.647-6.13 6.13-1.646-1.89zm16.092 8.126c-.807 1.44-2.171 2.391-3.742 2.609a4.966 4.966 0 01-4.5-1.715l-.012-.014-4.548-5.225 6.374-6.374 5.219 4.552.012.01c.39.333.737.732 1.031 1.187.945 1.461 1.012 3.459.166 4.97z"/><path d="M23.56 12.954a1.25 1.25 0 00-1.767 0l-5.304 5.304a1.25 1.25 0 001.768 1.768l5.303-5.304a1.25 1.25 0 000-1.768z"/></g><defs><clipPath id="adclip0"><path d="M0 0h64v64H0z"/></clipPath></defs></symbol><symbol viewBox="0 0 71 72" id="balance" xmlns="http://www.w3.org/2000/svg"><g opacity=".2" clip-path="url(#aeclip0)"><path d="M69.946 42.472l-8.099-17.347 3.496 1.003a1.445 1.445 0 10.798-2.78l-24.308-6.975a6.338 6.338 0 00-11.865-3.405L5.658 5.993a1.447 1.447 0 00-.798 2.78l4.797 1.377L.97 28.76c-.58.202-.968.749-.969 1.364a11.595 11.595 0 0019.813 8.185 11.46 11.46 0 003.46-8.185c0-.648-.432-1.216-1.055-1.392l-8.075-17.295 15.025 4.31a6.35 6.35 0 004.886 6.485v28.649h-3.992c-3.19 0-5.843 2.56-5.843 5.75v.84a5.83 5.83 0 00-4.628 5.668v2.025c.024.816.687 1.47 1.504 1.481h28.81a1.527 1.527 0 001.505-1.48v-2.026a5.83 5.83 0 00-4.629-5.669v-.839c0-3.19-2.653-5.75-5.842-5.75h-3.992V22.232a6.363 6.363 0 004.086-3.08l16.37 4.698-8.706 18.65c-.58.202-.97.749-.97 1.363a11.596 11.596 0 0019.813 8.186A11.464 11.464 0 0071 43.863c0-.648-.431-1.215-1.054-1.391zM11.6 12.757l7.4 15.85H4.2l7.4-15.85zm0 26.004a8.648 8.648 0 01-8.587-7.26h17.24a8.774 8.774 0 01-8.653 7.26zm36.917 24.378v.614H22.484v-.614c0-1.595 1.355-2.857 2.95-2.857h20.133c1.594 0 2.95 1.262 2.95 2.857zm-4.628-6.508v.758H27.112v-.758c0-1.595 1.356-2.858 2.95-2.858h10.877c1.594 0 2.95 1.263 2.95 2.858zM35.5 19.508a3.45 3.45 0 113.352-2.64 1.456 1.456 0 00-.082.283 3.453 3.453 0 01-3.27 2.357zm31.228 22.84h-14.8l7.4-15.851 7.4 15.85zm-7.4 10.153a8.648 8.648 0 01-8.587-7.26h17.24a8.774 8.774 0 01-8.654 7.26z"/></g><defs><clipPath id="aeclip0"><path transform="translate(0 .743)" d="M0 0h71v71H0z"/></clipPath></defs></symbol><symbol viewBox="0 0 71 71" id="briefcase" xmlns="http://www.w3.org/2000/svg"><path d="M67.45 16.567H54.433v-3.55a8.293 8.293 0 00-8.283-8.284h-21.3a8.293 8.293 0 00-8.283 8.284v3.55H3.55A3.55 3.55 0 000 20.117v23.666a3.55 3.55 0 002.367 3.333v15.6a3.55 3.55 0 003.55 3.55h59.166a3.55 3.55 0 003.55-3.55v-15.6A3.55 3.55 0 0071 43.783V20.117a3.55 3.55 0 00-3.55-3.55zm-48.517-3.55A5.924 5.924 0 0124.85 7.1h21.3a5.924 5.924 0 015.917 5.917v3.55h-2.414l.047-3.55a3.557 3.557 0 00-3.55-3.55H24.806a3.557 3.557 0 00-3.55 3.55v.011l.032 3.539h-2.355v-3.55zm28.4-.017l-.047 3.567H23.655l-.037-3.55c0-.654.53-1.184 1.184-1.184H46.15c.647 0 1.174.52 1.183 1.167zm18.934 49.717c0 .653-.53 1.183-1.184 1.183H5.917c-.654 0-1.184-.53-1.184-1.183V47.333h8.284v3.55c0 .654.53 1.184 1.183 1.184h4.733c.654 0 1.184-.53 1.184-1.184v-3.55h30.766v3.55c0 .654.53 1.184 1.184 1.184H56.8c.654 0 1.183-.53 1.183-1.184v-3.55h8.284v15.384zM15.383 49.7v-5.917c0-.319.131-.624.364-.842.215-.221.511-.345.82-.341.653 0 1.183.53 1.183 1.183V49.7h-2.367zm37.867 0v-5.917c0-.653.53-1.183 1.183-1.183.32-.001.625.13.844.362.22.217.342.513.34.821V49.7H53.25zm15.383-5.917c0 .654-.53 1.184-1.183 1.184h-9.467v-1.184a3.565 3.565 0 00-3.55-3.55 3.55 3.55 0 00-3.55 3.55v1.184H20.117v-1.184a3.55 3.55 0 00-3.55-3.55 3.57 3.57 0 00-3.55 3.55v1.184H3.55c-.653 0-1.183-.53-1.183-1.184V20.117c0-.654.53-1.184 1.183-1.184h63.9c.653 0 1.183.53 1.183 1.184v23.666z"/></symbol><symbol viewBox="0 0 99 99" id="car" xmlns="http://www.w3.org/2000/svg"><g clip-path="url(#agclip0)"><path d="M17.275 52.156a7.468 7.468 0 00-7.468 7.468c0 .318.026.631.066.938.463 3.681 3.596 6.528 7.401 6.528a7.467 7.467 0 007.437-6.83c.017-.209.031-.422.031-.637a7.466 7.466 0 00-7.467-7.467zm-3.738 4.654l1.522 1.523a2.578 2.578 0 00-.271.656h-2.146c.11-.812.421-1.554.895-2.179zm-.905 3.472h2.163c.061.23.151.448.271.648l-1.526 1.525a4.672 4.672 0 01-.908-2.173zm3.997 3.981a4.652 4.652 0 01-2.166-.899l1.518-1.519c.2.117.419.203.648.263v2.155zm0-7.123a2.594 2.594 0 00-.66.275l-1.521-1.521a4.64 4.64 0 012.181-.902v2.148zm1.293-2.15a4.648 4.648 0 012.181.903l-1.52 1.521a2.594 2.594 0 00-.66-.275l-.001-2.149zm0 9.271v-2.152a2.55 2.55 0 00.647-.264l1.519 1.519a4.654 4.654 0 01-2.166.897zm3.092-1.799l-1.531-1.533c.12-.201.217-.416.278-.646h2.146a4.659 4.659 0 01-.893 2.179zm-1.25-3.473a2.615 2.615 0 00-.271-.656l1.524-1.523c.471.625.782 1.367.894 2.18h-2.147v-.001zm59.52-6.833a7.468 7.468 0 00-7.468 7.468c0 .318.026.631.066.938.463 3.681 3.596 6.528 7.4 6.528 3.908 0 7.112-3.004 7.438-6.83.017-.209.03-.422.03-.637a7.465 7.465 0 00-7.466-7.467zm-3.738 4.654l1.52 1.523a2.578 2.578 0 00-.27.656H74.65a4.624 4.624 0 01.896-2.179zm-.904 3.472h2.163c.06.23.15.448.27.648l-1.524 1.525a4.633 4.633 0 01-.91-2.173zm3.996 3.981a4.652 4.652 0 01-2.166-.899l1.518-1.519c.2.117.419.203.648.263v2.155zm0-7.123a2.594 2.594 0 00-.66.275l-1.521-1.521a4.636 4.636 0 012.18-.902v2.148zm1.294-2.15a4.648 4.648 0 012.18.903l-1.52 1.521a2.524 2.524 0 00-.66-.275V54.99zm0 9.271v-2.152a2.55 2.55 0 00.647-.264l1.519 1.519a4.658 4.658 0 01-2.166.897zm3.09-1.799l-1.53-1.531c.12-.202.218-.416.278-.647h2.146a4.65 4.65 0 01-.893 2.178zm-1.25-3.473a2.578 2.578 0 00-.27-.656l1.523-1.523c.472.625.782 1.367.895 2.18h-2.147v-.001z"/><path fill-rule="evenodd" clip-rule="evenodd" d="M47.586 60.681l22.87-.46-.023-.12c-.014-.075-.029-.15-.039-.226a8.565 8.565 0 01-.078-1.125c0-4.945 4.022-8.968 8.968-8.968 4.947 0 8.97 4.022 8.97 8.968l-.002.035-.001.018.19-.016 7.61-1.433s2.915-1.552 2.915-5.822c.002-2.848-1.75-4.118-1.75-4.118v-5.526a1.8 1.8 0 00-1.523-1.78c-2.108-.33-5.843-.952-7.52-1.47-.917-.282-2.834-1.028-5.033-1.885-3.574-1.391-7.896-3.074-9.889-3.531l-.647-.153c-1.737-.414-5.092-1.214-9.357-1.689l-1.161 2.172c5.241.38 8.156 1.507 8.156 1.507l2.236 3.61-.762 2.745-14.085.473L47.586 60.68zm6.77-29.636c-4.072.166-8.44.818-12.748 2.312-1.24.43-4.766 2.038-8.736 3.849-3.563 1.625-7.482 3.412-10.425 4.657-1.834.04-19.977 3.822-20.943 6.414C.634 50.61.302 51.864.115 52.57l-.058.216c-.178.658 0 3.807 1.348 6 1.374.777 4.02 1.299 7.077 1.649l-.02-.108c-.029-.15-.057-.3-.077-.452a8.6 8.6 0 01-.078-1.125c0-4.945 4.022-8.97 8.969-8.97 4.945 0 8.968 4.024 8.968 8.97 0 .254-.017.506-.037.754a8.728 8.728 0 01-.291 1.613h.023l12.478-.251 9.912-18.547-11.897.365c.306-2.491-1.169-3.05-1.169-3.05 4.96-4.501 13.696-5.74 17.75-6.077l1.342-2.512zm21.68 10.317h4.22a2.354 2.354 0 00-1.231-2.508 79.895 79.895 0 00-7.21-3.287l4.22 5.795z"/></g><defs><clipPath id="agclip0"><path d="M0 0h98.967v98.967H0z"/></clipPath></defs></symbol><symbol viewBox="0 0 18 18" id="checked" xmlns="http://www.w3.org/2000/svg"><path d="M9 0C4.038 0 0 4.038 0 9s4.038 9 9 9 9-4.038 9-9-4.038-9-9-9zm5.03 6.632l-5.752 5.706a.885.885 0 01-1.24.023L3.992 9.586a.915.915 0 01-.067-1.263.892.892 0 011.263-.045l2.413 2.21 5.143-5.142a.899.899 0 011.286 0 .899.899 0 010 1.286z"/></symbol><symbol viewBox="0 0 36 36" id="clock" xmlns="http://www.w3.org/2000/svg"><path d="M30.728 5.272C27.328 1.872 22.808 0 18 0A17.882 17.882 0 005.272 5.272C1.872 8.672 0 13.192 0 18s1.872 9.328 5.272 12.728C8.672 34.128 13.192 36 18 36s9.328-1.872 12.728-5.272C34.128 27.328 36 22.808 36 18s-1.872-9.328-5.272-12.728zm-.796 24.66A16.765 16.765 0 0118 34.876a16.765 16.765 0 01-11.932-4.942A16.765 16.765 0 011.125 18 16.76 16.76 0 016.068 6.068 16.764 16.764 0 0118 1.125c4.508 0 8.745 1.755 11.933 4.943A16.765 16.765 0 0134.874 18c0 4.508-1.755 8.745-4.942 11.933z"/><path d="M3.375 18C3.375 9.936 9.935 3.375 18 3.375c2.909 0 5.718.852 8.125 2.463a.562.562 0 10.626-.935A15.676 15.676 0 0018 2.25 15.647 15.647 0 006.863 6.863 15.647 15.647 0 002.25 18c0 3.881 1.424 7.61 4.01 10.5a.561.561 0 00.794.044.562.562 0 00.044-.795A14.6 14.6 0 013.375 18zm27.723-8.75a.563.563 0 00-.935.625A14.555 14.555 0 0132.625 18c0 8.064-6.56 14.625-14.625 14.625a14.657 14.657 0 01-9.209-3.263.562.562 0 00-.708.874A15.785 15.785 0 0018 33.75a15.65 15.65 0 0011.137-4.613A15.647 15.647 0 0033.75 18c0-3.132-.917-6.158-2.652-8.75zM27.75 7.098c.378.339.742.701 1.083 1.077a.561.561 0 00.795.038.563.563 0 00.038-.794c-.367-.405-.76-.795-1.166-1.159a.562.562 0 10-.75.838z"/><path d="M18 7.313c.31 0 .563-.252.563-.563V5.062a.563.563 0 00-1.125 0V6.75c0 .31.251.563.562.563zm-.562 21.937v1.688a.563.563 0 001.125 0V29.25a.563.563 0 00-1.125 0zM7.313 18a.563.563 0 00-.563-.563H5.062a.563.563 0 000 1.125H6.75c.31 0 .563-.251.563-.562zm21.375 0c0 .31.251.563.562.563h1.688a.563.563 0 000-1.125H29.25a.563.563 0 00-.563.562zM12.862 7.976l-.844-1.462a.562.562 0 10-.974.563l.844 1.461a.562.562 0 10.974-.562zm11.25 19.485a.563.563 0 00-.974.563l.844 1.461a.562.562 0 10.974-.562l-.844-1.462zm-17.316-2.43a.56.56 0 00.28-.075l1.462-.844a.562.562 0 10-.562-.974l-1.462.844a.563.563 0 00.282 1.05zm20.948-12.093a.56.56 0 00.28-.076l1.462-.844a.562.562 0 10-.563-.974l-1.461.844a.563.563 0 00.282 1.05zm-2.994-6.63a.562.562 0 00-.768.206l-.844 1.462a.563.563 0 00.974.562l.844-1.461a.563.563 0 00-.206-.769zM12.656 27.256a.563.563 0 00-.768.206l-.844 1.46a.563.563 0 00.974.563l.844-1.461a.563.563 0 00-.206-.768zm14.806-3.144l1.46.844a.56.56 0 00.77-.206.563.563 0 00-.207-.768l-1.46-.844a.562.562 0 10-.563.974zM8.538 11.888l-1.461-.844a.562.562 0 10-.563.974l1.462.844a.56.56 0 00.768-.206.563.563 0 00-.206-.768zm13.378 13.456a.563.563 0 00.487-.844l-3.121-5.404A1.68 1.68 0 0019.687 18a1.69 1.69 0 00-1.125-1.59V9a.563.563 0 00-1.125 0v7.41A1.69 1.69 0 0016.313 18a1.69 1.69 0 001.996 1.659l3.12 5.404c.104.18.293.281.488.281zM17.437 18a.563.563 0 111.127.001.563.563 0 01-1.127-.001z"/></symbol><symbol viewBox="0 0 18 18" id="company" xmlns="http://www.w3.org/2000/svg"><g clip-path="url(#ajclip0)"><path d="M11.542 0H6.458c-.81 0-1.504.499-1.794 1.205h8.672A1.942 1.942 0 0011.542 0zm2.259 2.26H4.2c-1.07 0-1.94.87-1.94 1.939v13.274c0 .29.236.527.528.527h3.426v-2.504c0-1.07.87-1.94 1.94-1.94h1.694c1.07 0 1.94.87 1.94 1.94V18h3.426a.527.527 0 00.528-.527V4.199c0-1.07-.87-1.94-1.94-1.94zm-7.817 9.937a.531.531 0 01-.746 0 .53.53 0 010-.745.53.53 0 01.746 0 .53.53 0 010 .745zm0-2.26a.53.53 0 01-.746 0 .53.53 0 010-.745.53.53 0 01.746 0 .531.531 0 010 .746zm0-2.259a.531.531 0 01-.9-.373.53.53 0 01.527-.527c.139 0 .274.056.373.154a.531.531 0 010 .746zm0-2.259a.531.531 0 01-.746 0 .531.531 0 010-.746.53.53 0 01.746 0 .53.53 0 010 .746zm2.259 6.778a.531.531 0 01-.746 0 .531.531 0 010-.745.53.53 0 01.9.373.53.53 0 01-.154.372zm0-2.26a.53.53 0 01-.746 0 .531.531 0 010-.745.532.532 0 01.746 0 .531.531 0 010 .746zm0-2.259a.532.532 0 01-.746 0 .531.531 0 010-.746.532.532 0 01.746 0 .531.531 0 010 .746zm0-2.259a.532.532 0 01-.746 0 .531.531 0 010-.746.53.53 0 01.746 0 .531.531 0 010 .746zm2.26 6.778a.531.531 0 01-.746 0 .531.531 0 010-.745.531.531 0 01.372-.155.532.532 0 01.528.527.53.53 0 01-.155.373zm0-2.26a.53.53 0 01-.746 0 .531.531 0 010-.745.531.531 0 01.745 0 .53.53 0 010 .746zm-.9-2.632c0-.138.056-.274.154-.373a.531.531 0 01.745 0 .532.532 0 010 .746.531.531 0 01-.745 0 .531.531 0 01-.155-.373zm.9-1.886a.53.53 0 01-.746 0 .531.531 0 010-.746.53.53 0 01.745 0 .53.53 0 010 .746zm2.259 6.778a.531.531 0 01-.746 0 .53.53 0 010-.745.53.53 0 01.746 0 .53.53 0 010 .745zm0-2.26a.53.53 0 01-.746 0 .53.53 0 010-.745.53.53 0 01.746 0 .531.531 0 010 .746zm0-2.259a.53.53 0 01-.9-.373.53.53 0 01.527-.527.53.53 0 01.373.154.531.531 0 010 .746zm0-2.259a.532.532 0 01-.746 0 .53.53 0 010-.746.529.529 0 01.746 0 .53.53 0 010 .746z"/><path d="M9.847 14.611h-.32V18h1.205v-2.504a.886.886 0 00-.885-.885zm-2.579.885V18h1.205v-3.389h-.32a.886.886 0 00-.885.885z"/></g><defs><clipPath id="ajclip0"><path d="M0 0h18v18H0z"/></clipPath></defs></symbol><symbol viewBox="0 0 18 18" id="courthouse" xmlns="http://www.w3.org/2000/svg"><g clip-path="url(#akclip0)"><path d="M17.473 16.945h-.528v-.694a.395.395 0 00-.395-.396H1.45a.395.395 0 00-.395.396v.694H.527a.527.527 0 100 1.055h16.946a.527.527 0 100-1.055zM2.11 10.582h3.199v4.219h-3.2v-4.219zm14.835-5.801a.528.528 0 00-.265-.458L9.262.07a.527.527 0 00-.524 0L1.32 4.323a.528.528 0 00-.265.458v1.582h15.89V4.781zM9 5.31c-.872 0-1.582-.71-1.582-1.582 0-.873.71-1.582 1.582-1.582.872 0 1.582.71 1.582 1.582 0 .872-.71 1.582-1.582 1.582z"/><path d="M9 3.2a.528.528 0 100 1.055.528.528 0 000-1.056zm8.473 4.218H.527A.527.527 0 000 7.945V9c0 .291.236.527.527.527h16.946A.527.527 0 0018 9V7.945a.527.527 0 00-.527-.527zM7.418 10.582h3.164v4.219H7.418v-4.219zm5.273 0h3.2v4.219h-3.2v-4.219z"/></g><defs><clipPath id="akclip0"><path d="M0 0h18v18H0z"/></clipPath></defs></symbol><symbol viewBox="0 0 18 18" id="document" xmlns="http://www.w3.org/2000/svg"><path d="M11.602 5.273c-.679 0-1.23-.552-1.23-1.23V0H4.077a1.936 1.936 0 00-1.933 1.934v14.132c0 1.067.867 1.934 1.933 1.934h9.844a1.936 1.936 0 001.933-1.934V5.273h-4.253zm-6.575 7.383h2.557a.527.527 0 010 1.055H5.027a.527.527 0 010-1.055zM4.5 10.371c0-.291.236-.527.527-.527h7.735a.527.527 0 110 1.054H5.027a.527.527 0 01-.527-.527zm8.262-3.34a.527.527 0 110 1.055H5.027a.527.527 0 010-1.055h7.735z"/><path d="M11.426 4.043c0 .097.079.176.176.176h4.018a1.93 1.93 0 00-.37-.483L11.86.529a1.939 1.939 0 00-.434-.31v3.824z"/></symbol><symbol viewBox="0 0 59 59" id="document-handle" xmlns="http://www.w3.org/2000/svg"><path d="M39.761 38.776a.952.952 0 00-.951.952v17.369H10.785v-7.93a.952.952 0 00-.952-.952h-7.93V1.903H38.81v17.37a.952.952 0 001.903 0V.951A.952.952 0 0039.76 0H.951A.952.952 0 000 .952v48.215c0 .032.002.063.005.095.002.023.006.045.01.068l.004.024a.945.945 0 00.02.079l.002.011a.945.945 0 00.028.077l.004.01c.01.025.021.048.033.07l.007.015a.89.89 0 00.037.062l.01.018.042.056.014.019c.02.024.04.047.063.069l8.881 8.88a.943.943 0 00.07.063l.018.014a.92.92 0 00.056.041l.018.011c.02.013.04.026.062.037l.014.007a.952.952 0 00.07.033l.01.004c.026.01.051.02.078.028.004 0 .007.002.011.003a.894.894 0 00.079.02l.024.003a.9.9 0 00.163.015h29.928a.952.952 0 00.952-.952v-18.32a.952.952 0 00-.952-.952zM8.881 55.751L3.25 50.118h5.633v5.633z"/><path d="M33.418 51.387a.952.952 0 100-1.903h-8.171a.952.952 0 000 1.903h8.17zm-.001-42.505H7.295a.952.952 0 000 1.903h26.122a.952.952 0 100-1.903zm0 5.075H7.295a.952.952 0 000 1.903h26.122a.952.952 0 000-1.903zm0 5.075H7.295a.952.952 0 100 1.904h26.122a.952.952 0 000-1.904zm.951 6.028a.952.952 0 00-.951-.952H7.295a.952.952 0 000 1.903h26.122a.952.952 0 00.951-.952zm-4.518 5.074a.952.952 0 00-.952-.951H7.295a.952.952 0 000 1.903H28.9a.951.951 0 00.951-.952zM7.295 34.258a.952.952 0 100 1.903h13.061a.952.952 0 000-1.903H7.296zm50.423-22.716a4.348 4.348 0 00-3.095-1.28c-1.17 0-2.27.454-3.095 1.28l-2.961 2.96-2.692 2.692-19.237 19.237a.921.921 0 00-.074.084c-.006.008-.01.016-.017.023a.928.928 0 00-.047.07l-.009.013-5.604 9.519a1.573 1.573 0 00-.366 1.013c0 .423.165.822.465 1.121.3.3.698.465 1.122.465.374 0 .728-.13 1.012-.366l9.519-5.604.012-.008a.968.968 0 00.07-.048l.024-.017a.935.935 0 00.084-.074l19.237-19.237 2.691-2.692 2.961-2.96a4.383 4.383 0 000-6.191zm-6.325 9.824l-3.5-3.499 1.347-1.346 3.499 3.5-1.346 1.345zM32.156 40.603l-3.5-3.499 17.892-17.891 3.5 3.499-17.892 17.891zM26.66 44.08l-1.48-1.48 2.326-3.954 3.107 3.107-3.953 2.327zm-3.6 2.12l1.123-1.907.784.785L23.06 46.2zm33.312-29.813l-2.287 2.287-3.5-3.498 2.288-2.289a2.457 2.457 0 011.75-.723 2.46 2.46 0 011.75.723 2.46 2.46 0 01.723 1.75c0 .662-.257 1.284-.724 1.75z"/></symbol><symbol viewBox="0 0 18 18" id="facebook" xmlns="http://www.w3.org/2000/svg"><path d="M12.2 8.073v-1.02c0-.23.064-.433.172-.569.095-.118.255-.226.563-.226h1.577V2.914h-.5l-1.622-.002c-1.25 0-2.242.374-2.919 1.082-.672.703-.971 1.67-.971 2.733v1.345H6.7V11.3h1.8v5.3H2.7c-.714 0-1.3-.585-1.3-1.3V2.7c0-.714.586-1.3 1.3-1.3h12.6c.714 0 1.3.586 1.3 1.3v12.6c0 .715-.586 1.3-1.3 1.3h-3.1v-5.3h1.698l.09-.388.51-2.227.141-.612H12.2z"/></symbol><symbol viewBox="0 0 71 55" id="fast-time" xmlns="http://www.w3.org/2000/svg"><g clip-path="url(#aoclip0)"><path d="M5.391 13.085H16.36c.574 0 1.04-.46 1.04-1.03 0-.568-.466-1.028-1.04-1.028H5.39c-.574 0-1.04.46-1.04 1.029s.466 1.03 1.04 1.03zm10.592 4.956H11.65c-.574 0-1.04.46-1.04 1.03 0 .568.466 1.029 1.04 1.029h4.333c.575 0 1.04-.46 1.04-1.03 0-.568-.465-1.029-1.04-1.029zM1.04 25.18h10.61c.575 0 1.04-.461 1.04-1.03 0-.568-.465-1.029-1.04-1.029H1.04c-.574 0-1.04.46-1.04 1.03 0 .568.466 1.029 1.04 1.029zM17.4 43.43c0-.57-.466-1.03-1.04-1.03H5.39c-.574 0-1.04.46-1.04 1.03 0 .568.466 1.029 1.04 1.029h10.97c.574 0 1.04-.461 1.04-1.03zm-1.417-8.044H11.65c-.574 0-1.04.46-1.04 1.029s.466 1.03 1.04 1.03h4.333c.575 0 1.04-.462 1.04-1.03 0-.569-.465-1.03-1.04-1.03zm-3.293-4.051c0-.569-.465-1.03-1.04-1.03H1.04c-.574 0-1.04.461-1.04 1.03s.466 1.03 1.04 1.03h10.61c.575 0 1.04-.461 1.04-1.03zm31.62-15.968c.574 0 1.04-.461 1.04-1.03v-1.571c0-.569-.466-1.03-1.04-1.03-.575 0-1.04.461-1.04 1.03v1.571c0 .569.465 1.03 1.04 1.03zm11.435 1.057a1.048 1.048 0 00-1.471 0l-1.123 1.111a1.022 1.022 0 000 1.456 1.048 1.048 0 001.471 0l1.123-1.11a1.022 1.022 0 000-1.457zm2.108 10.289c-.574 0-1.04.461-1.04 1.03 0 .568.466 1.03 1.04 1.03h1.588c.574 0 1.04-.462 1.04-1.03 0-.569-.466-1.03-1.04-1.03h-1.588zm-3.231 9.781a1.048 1.048 0 00-1.47 0 1.022 1.022 0 000 1.456l1.122 1.11a1.048 1.048 0 001.47 0 1.022 1.022 0 000-1.455l-1.122-1.111zM43.27 41.148v1.571c0 .57.465 1.03 1.04 1.03.574 0 1.04-.46 1.04-1.03v-1.57c0-.57-.466-1.03-1.04-1.03-.575 0-1.04.46-1.04 1.03zm-9.273-4.654l-1.123 1.11a1.022 1.022 0 000 1.457 1.048 1.048 0 001.471 0l1.123-1.111a1.022 1.022 0 000-1.456 1.048 1.048 0 00-1.471 0zm-4.818-9.781c-.574 0-1.04.461-1.04 1.03 0 .568.466 1.03 1.04 1.03h1.588c.574 0 1.04-.462 1.04-1.03 0-.569-.466-1.03-1.04-1.03h-1.588zm6.289-9.178l-1.123-1.11a1.048 1.048 0 00-1.47 0 1.022 1.022 0 000 1.455l1.122 1.111a1.048 1.048 0 001.47 0 1.022 1.022 0 000-1.456zm14.434 10.208c0-.569-.466-1.03-1.04-1.03h-3.513V19.07c0-.568-.465-1.029-1.04-1.029-.574 0-1.04.46-1.04 1.03v8.672c0 .568.466 1.03 1.04 1.03h4.553c.574 0 1.04-.462 1.04-1.03z"/><path d="M64.03 27.573a1.033 1.033 0 00.976-1.09C64.344 15.681 55.253 7.219 44.31 7.219c-11.434 0-20.736 9.207-20.736 20.524s9.302 20.524 20.736 20.524c10.243 0 18.984-7.429 20.504-17.453a1.03 1.03 0 00-.874-1.17 1.04 1.04 0 00-1.183.864c-1.366 9.006-9.222 15.7-18.447 15.7-10.287 0-18.656-8.283-18.656-18.465S34.023 9.278 44.31 9.278c9.846 0 18.024 7.612 18.62 17.33.034.567.527.998 1.1.965z"/><path d="M44.31 1.325a26.93 26.93 0 00-10.542 2.156h-18.35c-.575 0-1.04.461-1.04 1.03 0 .568.465 1.03 1.04 1.03h14.437a26.595 26.595 0 00-5.334 4.474 1.022 1.022 0 00.073 1.454c.426.382 1.083.35 1.47-.072 4.659-5.092 11.31-8.013 18.245-8.013 13.57 0 24.61 10.927 24.61 24.359 0 13.431-11.04 24.358-24.61 24.358S19.7 41.174 19.7 27.743a24.09 24.09 0 013.925-13.202 1.023 1.023 0 00-.309-1.423 1.047 1.047 0 00-1.438.306 26.126 26.126 0 00-4.258 14.319c0 9.3 4.882 17.494 12.243 22.202H15.418c-.575 0-1.04.461-1.04 1.03 0 .568.465 1.03 1.04 1.03h18.336A26.774 26.774 0 0044.31 54.16C59.026 54.16 71 42.31 71 27.743 71 13.176 59.026 1.325 44.31 1.325z"/></g><defs><clipPath id="aoclip0"><path transform="translate(0 .743)" d="M0 0h71v54H0z"/></clipPath></defs></symbol><symbol viewBox="0 0 51 52" id="file" xmlns="http://www.w3.org/2000/svg"><g clip-path="url(#apclip0)"><path d="M26.35 5.843h5.1a.85.85 0 000-1.7h-5.1a.85.85 0 000 1.7zm8.5 0h1.7a.85.85 0 000-1.7h-1.7a.85.85 0 000 1.7zM8.5 17.743h1.7a.85.85 0 100-1.7H8.5a.85.85 0 000 1.7zm5.1 0h16.15a.85.85 0 100-1.7H13.6a.85.85 0 000 1.7zm-5.1 6.8h3.4a.85.85 0 100-1.7H8.5a.85.85 0 100 1.7zm21.25-1.7H15.3a.85.85 0 100 1.7h14.45a.85.85 0 000-1.7zm-21.25-1.7h6.8a.85.85 0 100-1.7H8.5a.85.85 0 000 1.7zm14.45 0a.85.85 0 100-1.7H18.7a.85.85 0 100 1.7h4.25zm6.8-1.7h-3.4a.85.85 0 000 1.7h3.4a.85.85 0 100-1.7zM9.578 42.393a1.7 1.7 0 002.323.622l13.25-7.65a1.7 1.7 0 00.622-2.322l-2.55-4.42A1.7 1.7 0 0020.901 28l-13.25 7.653a1.704 1.704 0 00-.623 2.323l2.55 4.417zm12.173-12.92l2.55 4.42-13.25 7.65-2.55-4.42 13.25-7.65z"/><path d="M11.986 38.908a.85.85 0 00.425-.113l.735-.425a.85.85 0 10-.85-1.473l-.736.425a.85.85 0 00.425 1.586zm3.68-2.125a.85.85 0 00.425-.113l5.152-2.975a.85.85 0 00-.85-1.473l-5.152 2.975a.85.85 0 00.425 1.586z"/><path d="M46.75 33.893H42.5v-1.7a1.7 1.7 0 001.7-1.7v-2.229c.015-.484.244-.937.627-1.234a7.643 7.643 0 00.223-11.59 7.512 7.512 0 00-.85-.647v-6.4a4.25 4.25 0 00-3.478-4.172A4.25 4.25 0 0036.55.743H13.6a.85.85 0 00-.6.249L1.95 12.042a.85.85 0 00-.25.6v31.45a4.25 4.25 0 003.478 4.172 4.25 4.25 0 004.172 3.479h30.6a4.255 4.255 0 004.25-4.25v-2.55h.85a1.7 1.7 0 001.7-1.7v-2.55a2.55 2.55 0 002.55-2.55v-1.7a2.55 2.55 0 00-2.55-2.55zm-5.95 0h-1.7v-1.7h1.7v1.7zm5.1-12.75a5.926 5.926 0 01-2.157 4.577 3.315 3.315 0 00-1.243 2.544v2.229h-5.1v-2.229a3.323 3.323 0 00-1.245-2.55 5.944 5.944 0 013.803-10.521 5.876 5.876 0 013.052.845l.013.006a5.964 5.964 0 012.877 5.098zm-3.4-12.75v5.548a7.721 7.721 0 00-1.7-.395V6a2.55 2.55 0 011.7 2.394zM12.75 3.645v5.598a2.55 2.55 0 01-2.55 2.55H4.602l8.148-8.148zM3.4 44.093v-30.6h6.8a4.255 4.255 0 004.25-4.25v-6.8h22.1a2.55 2.55 0 012.55 2.55v8.546h-.02a7.718 7.718 0 00-6.685 6.381 7.625 7.625 0 002.675 7.105c.384.299.615.753.63 1.239v2.229a1.7 1.7 0 001.7 1.7v1.7h-4.25a2.55 2.55 0 00-2.55 2.55v1.7a2.55 2.55 0 002.55 2.55v2.55a1.7 1.7 0 001.7 1.7h4.094a2.55 2.55 0 01-2.394 1.7H5.95a2.55 2.55 0 01-2.55-2.55zm39.1 3.4a2.55 2.55 0 01-2.55 2.55H9.35a2.55 2.55 0 01-2.393-1.7H36.55a4.258 4.258 0 004.165-3.4H42.5v2.55zm2.55-4.25h-10.2v-2.55h10.2v2.55zm2.55-5.1c0 .47-.38.85-.85.85h-13.6a.85.85 0 01-.85-.85v-1.7c0-.47.38-.85.85-.85h13.6c.47 0 .85.38.85.85v1.7z"/></g><defs><clipPath id="apclip0"><path transform="translate(0 .743)" d="M0 0h51v51H0z"/></clipPath></defs></symbol><symbol viewBox="0 0 18 18" id="free-questions" xmlns="http://www.w3.org/2000/svg"><path d="M8.08 8.607c0 .322-.246.529-.66.529h-.326V8.12c.06-.01.174-.027.375-.027.382.007.611.176.611.513zM18 9c0 .698-.274 1.355-.765 1.848l-1.106 1.105v1.563a2.617 2.617 0 01-2.613 2.613h-1.562l-1.105 1.105A2.601 2.601 0 019 18a2.597 2.597 0 01-1.848-.767L6.047 16.13H4.484a2.601 2.601 0 01-1.848-.764 2.595 2.595 0 01-.765-1.849v-1.564L.766 10.85A2.597 2.597 0 010 9.001a2.6 2.6 0 01.765-1.847L1.87 6.049V4.485a2.616 2.616 0 012.613-2.612h1.563L7.152.766A2.594 2.594 0 019 0c.699 0 1.354.272 1.849.766l1.103 1.104h1.563c.698 0 1.355.272 1.848.765.495.495.765 1.15.765 1.848v1.563l1.106 1.106A2.6 2.6 0 0117.999 9zM5.644 7.507H3.401v3.672h.833V9.702h1.32v-.676h-1.32v-.839h1.413v-.681h-.002zm3.399 3.672c-.07-.142-.185-.62-.3-1.035-.093-.337-.234-.584-.49-.687v-.016c.315-.114.648-.435.648-.904 0-.338-.12-.594-.338-.769-.262-.206-.643-.289-1.188-.289-.442 0-.84.033-1.106.077v3.623h.822V9.735h.252c.338.006.496.131.593.59.11.451.196.751.256.855l.851-.001zm2.799-.68h-1.511v-.873h1.352V8.95h-1.352v-.763h1.435v-.681H9.499v3.672h2.344v-.68zm2.908 0h-1.51v-.873h1.351V8.95H13.24v-.763h1.434v-.681h-2.267v3.672h2.343v-.68z"/></symbol><symbol viewBox="0 0 69 68" id="free-time" xmlns="http://www.w3.org/2000/svg"><g clip-path="url(#arclip0)"><path d="M29.382 11.758h.091c.629 0 1.131-.501 1.143-1.127a1.15 1.15 0 00-1.131-1.15h-.092c-.628 0-1.142.501-1.142 1.127 0 .638.503 1.15 1.13 1.15zm-1.267 8.614c0 .295.125.591.331.808.217.216.503.33.811.33.297 0 .594-.126.811-.33.217-.217.331-.501.331-.808 0-.296-.125-.592-.33-.808a1.133 1.133 0 00-.812-.33c-.297 0-.594.125-.811.33a1.194 1.194 0 00-.331.808zm1.118 35.354c-.297 0-.594.126-.81.33a1.123 1.123 0 00-.332.808c0 .296.125.592.331.808.217.217.503.33.811.33.297 0 .594-.125.811-.33.217-.216.332-.5.332-.808 0-.307-.126-.591-.332-.808a1.153 1.153 0 00-.81-.33zm-18.3-18.263c-.297 0-.594.125-.811.33-.217.216-.331.5-.331.808 0 .296.125.592.33.808.218.216.503.33.812.33.297 0 .594-.125.811-.33.217-.205.331-.501.331-.808 0-.296-.125-.592-.331-.808a1.204 1.204 0 00-.811-.33zm9.161-15.794c-.297 0-.594.125-.81.33-.218.205-.332.5-.332.808 0 .307.126.591.331.808.206.216.503.33.811.33.309 0 .594-.125.811-.33.217-.205.332-.501.332-.808 0-.307-.126-.592-.332-.808a1.114 1.114 0 00-.81-.33zM38.396 53.28c-.297 0-.594.125-.811.33-.217.205-.331.5-.331.808 0 .296.125.592.331.808.206.216.503.33.811.33.309 0 .594-.125.811-.33.217-.205.331-.501.331-.808 0-.296-.125-.592-.33-.808a1.133 1.133 0 00-.812-.33zm6.717-22.633c.297 0 .594-.125.81-.33.218-.216.332-.5.332-.808 0-.296-.126-.592-.331-.808a1.133 1.133 0 00-.811-.33c-.297 0-.594.125-.812.33-.217.216-.33.5-.33.808 0 .296.125.592.33.808.218.205.515.33.812.33zM13.377 46.589a1.2 1.2 0 00-.81.33 1.12 1.12 0 00-.332.808c0 .307.126.592.331.808.217.216.503.33.811.33.297 0 .595-.125.812-.33.217-.205.33-.5.33-.808 0-.307-.125-.592-.33-.808a1.153 1.153 0 00-.812-.33zm.012-18.252c-.297 0-.594.125-.811.33-.217.216-.331.5-.331.808 0 .296.125.591.33.808.218.216.504.33.812.33.297 0 .594-.125.811-.33.217-.216.331-.5.331-.808 0-.296-.125-.592-.33-.808a1.182 1.182 0 00-.812-.33zm31.712 20.551c.297 0 .594-.126.812-.33.217-.205.33-.501.33-.808 0-.308-.125-.592-.33-.808a1.114 1.114 0 00-.812-.33c-.297 0-.594.125-.81.33a1.12 1.12 0 00-.332.808c0 .307.126.591.331.807.217.205.503.33.811.33zm-6.683-24.932c.297 0 .594-.125.811-.33.217-.216.332-.5.332-.808 0-.307-.126-.592-.332-.808a1.133 1.133 0 00-.81-.33c-.298 0-.595.125-.812.33-.217.205-.331.5-.331.808 0 .307.125.592.331.808.217.216.503.33.811.33zM20.072 53.269c-.297 0-.594.125-.811.33-.217.216-.332.5-.332.808 0 .295.126.591.332.807.217.217.502.33.81.33.298 0 .595-.125.812-.33.217-.216.331-.5.331-.807 0-.296-.125-.592-.331-.808a1.182 1.182 0 00-.811-.33zm14.154-5.099h-9.927c-.629 0-1.143.513-1.143 1.139 0 .625.514 1.138 1.143 1.138h9.927c.628 0 1.142-.513 1.142-1.138 0-.626-.514-1.138-1.142-1.138zm4.42-20.516l-7.334 7.305a4.277 4.277 0 00-2.067-.546 4.24 4.24 0 00-2.068.535l-3.507-3.493a1.14 1.14 0 00-1.611 0 1.13 1.13 0 000 1.604l3.507 3.494a4.16 4.16 0 00-.537 2.06c0 2.32 1.897 4.198 4.216 4.198s4.215-1.889 4.215-4.199a4.15 4.15 0 00-.537-2.048l7.334-7.305a1.13 1.13 0 000-1.605 1.14 1.14 0 00-1.61 0zm-9.401 12.893a1.932 1.932 0 01-1.931-1.923 1.932 1.932 0 013.861 0 1.932 1.932 0 01-1.93 1.923zm18.312-.774c.297 0 .594-.125.811-.33.218-.216.332-.5.332-.808 0-.296-.126-.592-.332-.808a1.133 1.133 0 00-.81-.33c-.298 0-.595.125-.812.33-.217.216-.331.5-.331.808 0 .296.126.592.331.808.217.205.514.33.811.33zM34.763 12.326c2.673.558 4.95 1.259 7.257 2.522v-1.323c0-.502.237-1.005.237-1.005a28.681 28.681 0 00-7.026-2.424 1.136 1.136 0 00-1.348.888c-.137.603.263 1.206.88 1.342z"/><path d="M56 35.29c.137 1.092.205 2.196.205 3.322 0 14.804-12.098 26.855-26.96 26.855s-26.96-12.04-26.96-26.855c0-13.006 9.31-24.112 22.14-26.422a1.152 1.152 0 00.924-1.32 1.156 1.156 0 00-1.325-.922c-6.66 1.195-12.737 4.711-17.124 9.889A29.032 29.032 0 000 38.612c0 7.783 3.039 15.1 8.568 20.596 5.529 5.508 12.863 8.535 20.677 8.535s15.16-3.027 20.677-8.535c5.53-5.507 8.568-12.813 8.568-20.596 0-1.115-.105-3.488-.548-4.81L56 35.289z"/><path d="M50.424 33.802c.194 1.15.526 3.615.526 4.822 0 11.925-9.733 21.62-21.705 21.62-11.972 0-21.705-9.695-21.705-21.62 0-11.926 9.733-21.62 21.705-21.62 4.878 0 10.038 2.177 13.66 4.896l-1.327-3.526c-3.747-2.423-7.547-3.646-12.333-3.646-13.229 0-23.99 10.719-23.99 23.896 0 13.177 10.761 23.896 23.99 23.896s23.99-10.72 23.99-23.896c0-1.207.014-1.458-.157-2.618l-2.654-2.204zm3.427-24.707c-3.518 0-6.374 2.845-6.374 6.35 0 3.504 2.856 6.349 6.374 6.349 3.519 0 6.375-2.845 6.375-6.35 0-3.504-2.856-6.35-6.375-6.35zm0 10.98c-2.57 0-4.66-2.082-4.66-4.642 0-2.56 2.09-4.643 4.66-4.643 2.57 0 4.661 2.083 4.661 4.643 0 2.56-2.09 4.643-4.66 4.643z"/><path d="M53.852 4.68c-5.952 0-10.807 4.825-10.807 10.764 0 3.425 2.878 8.523 4.603 11.254 1.131 1.798 2.342 3.517 3.416 4.825 1.725 2.105 2.342 2.276 2.788 2.276.445 0 1.028-.17 2.753-2.276 1.074-1.32 2.296-3.027 3.416-4.813 1.724-2.743 4.626-7.852 4.626-11.254C64.66 9.505 59.803 4.68 53.852 4.68zm4.98 20.687c-2.216 3.584-4.25 6.008-4.992 6.623-.754-.603-2.753-2.959-4.992-6.612-2.593-4.21-4.078-7.829-4.078-9.934 0-4.995 4.078-9.057 9.093-9.057s9.082 4.062 9.082 9.046c0 2.094-1.496 5.712-4.113 9.934z"/></g><defs><clipPath id="arclip0"><path transform="translate(0 .743)" d="M0 0h69v67H0z"/></clipPath></defs></symbol><symbol viewBox="0 0 64 65" id="happiness" xmlns="http://www.w3.org/2000/svg"><g opacity=".3" clip-path="url(#asclip0)"><path d="M32 .743c-17.645 0-32 14.355-32 32s14.355 32 32 32 32-14.355 32-32-14.355-32-32-32zm0 60.54c-7.84 0-14.95-3.177-20.113-8.311a28.696 28.696 0 01-5.175-7.01 28.364 28.364 0 01-3.252-13.22c0-15.736 12.803-28.54 28.54-28.54 7.465 0 14.268 2.882 19.359 7.59a28.691 28.691 0 016.39 8.648 28.37 28.37 0 012.791 12.303c0 15.737-12.803 28.54-28.54 28.54z"/><path d="M21.062 25.478c1.86 0 3.372 1.427 3.372 3.373h3.46c0-3.892-3.065-6.832-6.832-6.832s-6.832 2.94-6.832 6.832h3.46c0-1.946 1.513-3.373 3.372-3.373zm21.876 0c1.86 0 3.372 1.427 3.372 3.373h3.46c0-3.892-3.065-6.832-6.832-6.832-3.768 0-6.832 2.94-6.832 6.832h3.46c0-1.946 1.512-3.373 3.372-3.373zM31.939 50.472c6.693 0 13.107-3.423 16.78-9.105l-2.907-1.878c-3.372 5.218-9.542 8.13-15.717 7.418-4.814-.555-9.265-3.328-11.908-7.418l-2.905 1.878c3.198 4.949 8.587 8.304 14.416 8.977a19.5 19.5 0 002.24.128z"/></g><defs><clipPath id="asclip0"><path transform="translate(0 .743)" d="M0 0h64v64H0z"/></clipPath></defs></symbol><symbol viewBox="0 0 18 18" id="info" xmlns="http://www.w3.org/2000/svg"><path d="M9 0C4.037 0 0 4.037 0 9s4.037 9 9 9 9-4.037 9-9-4.037-9-9-9zm0 3.75a.75.75 0 110 1.5.75.75 0 010-1.5zm1.688 10.5H7.312a.75.75 0 110-1.5h.938v-4.5h-.563a.75.75 0 110-1.5H9a.75.75 0 01.75.75v5.25h.938a.75.75 0 110 1.5z"/></symbol><symbol viewBox="0 0 18 18" id="law" xmlns="http://www.w3.org/2000/svg"><g clip-path="url(#auclip0)"><path d="M10.313 13.875h-9c-.724 0-1.313.589-1.313 1.313v1.5C0 17.41.589 18 1.313 18h9c.723 0 1.312-.589 1.312-1.313v-1.5c0-.723-.589-1.312-1.313-1.312zm1.193-6.789c.366-.445.672-.898.835-1.315l.015.002a1.3 1.3 0 00.924-.383l.527-.525c.51-.51.51-1.34 0-1.85L11.174.384a1.307 1.307 0 00-1.848 0L8.8.91a1.299 1.299 0 00-.381.934c-.248.1-.46.232-.578.306-.5.318-1.096.813-1.676 1.395-.58.579-1.074 1.173-1.392 1.674a3.581 3.581 0 00-.304.574 1.305 1.305 0 00-.935.381l-.526.527a1.298 1.298 0 00-.383.924c0 .35.136.678.383.924l2.633 2.633c.255.255.59.382.924.382.334 0 .67-.127.924-.382l.526-.527a1.3 1.3 0 00.381-.937c.246-.1.46-.227.575-.301.229-.145.478-.331.736-.541 1.895 2.207 4.602 5.184 5.088 5.67.43.43.994.833 1.595.833.36 0 .734-.144 1.1-.512.136-.135.45-.45.502-.958.055-.552-.222-1.137-.822-1.737-.48-.482-3.45-3.185-5.664-5.086zM7.219 9.86l-.526.526a.184.184 0 01-.257 0L3.803 7.754a.18.18 0 010-.258l.527-.526a.183.183 0 01.258 0L7.22 9.602c.07.07.07.187 0 .258zm2.376-7.898a.183.183 0 010-.257l.526-.527a.181.181 0 01.258 0l2.633 2.633a.183.183 0 010 .258l-.527.526a.184.184 0 01-.258 0L9.595 1.962z"/></g><defs><clipPath id="auclip0"><path d="M0 0h18v18H0z"/></clipPath></defs></symbol><symbol viewBox="0 0 17 17" id="law-book" xmlns="http://www.w3.org/2000/svg"><path d="M7.346 9.192h2.308v.231H7.346v-.23zM3.958 6.23h1.98l-.99-2.653-.99 2.654zm.99 1.311c.52 0 1.043-.233 1.175-.772h-2.34c.132.539.684.772 1.165.772zm-3.354 8.466v.013c0 .54.47.98 1.048.98h11.386c.241 0 .434-.18.434-.4v-1.562H2.642c-.573 0-1.04.434-1.048.97zm6.048-7.353h1.717c-.076-.116-.194-.23-.314-.23h-1.09c-.12 0-.238.114-.313.23zm4.41-5.077l-.99 2.654h1.98l-.99-2.654zM8.847 2.7a.347.347 0 11-.694 0 .347.347 0 01.694 0z"/><path d="M14.97 0H2.03c-.24 0-.453.18-.453.4v14.48c.308-.236.664-.38 1.065-.38H14.97c.24 0 .454-.179.454-.4V.4c0-.22-.213-.4-.454-.4zm-1.718 13.077H3.748a.27.27 0 010-.538h9.504a.27.27 0 010 .538zm-8.235-1.808c0-.149.12-.269.27-.269h6.426a.27.27 0 110 .539H5.287a.27.27 0 01-.269-.27zm7.024-3.197c-1.02 0-1.734-.65-1.734-1.58a.27.27 0 01.173-.25l1.18-3.165H9.3a.89.89 0 01-.53.466v4.342h.275c.412 0 .778.33.893.749a.27.27 0 01.254.275v.776a.268.268 0 01-.26.277H7.067a.268.268 0 01-.26-.277V8.91a.271.271 0 01.254-.275c.115-.418.48-.75.893-.75h.276v-4.34a.89.89 0 01-.532-.467H5.34L6.52 6.24a.27.27 0 01.174.251c0 .93-.718 1.58-1.745 1.58-1.02 0-1.734-.65-1.734-1.58a.27.27 0 01.16-.246l1.322-3.541.003-.008a.22.22 0 01.006-.014l.006-.011.007-.011a.157.157 0 01.014-.022.23.23 0 01.009-.011l.008-.01.01-.01a.52.52 0 01.029-.025l.01-.007a.52.52 0 01.012-.008l.011-.006.012-.006.013-.006.008-.003.003-.001a.285.285 0 01.015-.005l.01-.003.015-.003.012-.002.013-.002.013-.001h.026l.013.001.013.002.013.002.013.003H7.63a.885.885 0 011.74 0h2.616l.015-.003.011-.002.014-.002.012-.001h.027l.013.001.013.002.013.002.013.003.012.003.013.005h.004l.009.005.012.005.013.006a.198.198 0 01.031.02l.012.01.009.008.01.01a.285.285 0 01.017.018l.009.01a.212.212 0 01.014.023l.007.011.006.012a.221.221 0 01.009.021l1.321 3.541a.27.27 0 01.16.246c0 .93-.717 1.58-1.744 1.58z"/><path d="M12.041 7.541c.52 0 1.043-.233 1.175-.772h-2.34c.132.539.684.772 1.165.772z"/></symbol><symbol viewBox="0 0 66 66" id="lawyer-user" xmlns="http://www.w3.org/2000/svg"><g clip-path="url(#awclip0)"><path d="M65.908 64.462L59.7 50.221a3.308 3.308 0 00-2.147-2.106l-16.067-5.113-1.72-4.301 5.08-6.096c.165-.2.255-.448.255-.705v-2.2h1.1c1.82 0 3.3-1.48 3.3-3.3V22c0-1.82-1.48-3.3-3.3-3.3h-1.1v-1.1h1.1a1.097 1.097 0 001.097-1.178L46.49 5.108A5.52 5.52 0 0041.002.001H25.3a5.506 5.506 0 00-5.5 5.5v11a1.1 1.1 0 001.1 1.1v1.1h-1.1c-1.82 0-3.3 1.48-3.3 3.3v4.4c0 1.82 1.48 3.3 3.3 3.3h1.1v2.2c0 .257.09.506.254.704l5.061 6.074-2.007 4.51-5.544 1.733-10.217 3.194c-1.01.314-1.812 1.102-2.112 2.015L.092 64.46A1.1 1.1 0 001.1 66h63.8a1.1 1.1 0 001.009-1.539zM45.1 20.9h1.1c.607 0 1.1.494 1.1 1.1v4.4c0 .606-.493 1.1-1.1 1.1h-1.1v-6.6zm-24.2 6.6h-1.1c-.607 0-1.1-.494-1.1-1.1V22c0-.606.493-1.1 1.1-1.1h1.1v6.6zm20.118 17.753l3.934 1.23-7.099 5.858-2.9-3.623 6.065-3.465zm-5.092 8.565L33 56.745l-2.926-2.926L33 50.162l2.926 3.657zm-9.415-10.393l1.563-3.51 4.517 1.806a1.122 1.122 0 00.817 0l4.48-1.791 1.435 3.59L33 47.133l-6.489-3.707zM22.001 5.5c0-1.82 1.48-3.3 3.299-3.3h15.702a3.313 3.313 0 013.293 3.065l.724 10.135H37.4c-5.11 0-7.7-1.85-7.7-5.5a1.1 1.1 0 10-2.2 0c0 3.033-2.467 5.5-5.5 5.5V5.5zm1.1 26.002V17.517a7.72 7.72 0 005.467-3.6c1.502 2.38 4.544 3.684 8.832 3.684h5.5v13.902l-5.067 6.08L33 39.515l-4.833-1.933-5.067-6.08zM25.02 45.24l6.306 3.492-2.888 3.609-7.18-5.925 3.762-1.176zm2.722 18.56H2.779l5.61-12.884c.11-.334.378-.596.714-.701l9.648-3.016 9.11 7.52 1.72 1.72-1.839 7.361zm2.267 0l1.386-5.548.826.826a1.101 1.101 0 001.557 0l.826-.826L35.99 63.8h-5.982zm8.249 0l-1.84-7.362 1.471-1.472a1.08 1.08 0 00.503-.216l9.069-7.483.475.148-3.88 11.638a1.1 1.1 0 00.184 1.035l2.97 3.712h-8.952zm8.075-4.62l3.703-11.11 1.77.554.955 11.46-3.17 3.17-3.258-4.073zm5.822 4.62l2.523-2.522c.228-.229.344-.547.317-.869l-.922-11.077 2.824.883c.337.104.604.366.75.793L63.221 63.8H52.155z"/></g><defs><clipPath id="awclip0"><path d="M0 0h66v66H0z"/></clipPath></defs></symbol><symbol viewBox="0 0 58 59" id="like" xmlns="http://www.w3.org/2000/svg"><g opacity=".3" clip-path="url(#axclip0)"><path d="M55.498 40.174c1.189-1.517 1.76-3.142 1.686-4.816-.072-1.843-.897-3.286-1.576-4.172.788-1.965 1.091-5.058-1.54-7.46-1.93-1.758-5.204-2.546-9.74-2.328a38.05 38.05 0 00-5.968.764h-.012a51.33 51.33 0 00-1.904.388c-.049-.776.085-2.704 1.516-7.046 1.698-5.167 1.601-9.121-.315-11.765C35.63.96 32.417.743 31.47.743c-.91 0-1.746.376-2.34 1.067-1.347 1.565-1.19 4.451-1.02 5.786-1.6 4.293-6.088 14.821-9.884 17.744-.073.049-.134.11-.195.17-1.115 1.176-1.867 2.45-2.377 3.566a5.005 5.005 0 00-2.401-.607H5.855A5.05 5.05 0 00.81 33.515v19.71a5.05 5.05 0 005.045 5.045h7.399a5.03 5.03 0 002.91-.922l2.85.34c.438.06 8.2 1.043 16.169.885 1.443.11 2.801.17 4.063.17 2.17 0 4.063-.17 5.64-.51 3.711-.788 6.246-2.365 7.532-4.681.982-1.771.982-3.53.824-4.646 2.414-2.183 2.839-4.596 2.754-6.294a8.193 8.193 0 00-.498-2.438zM5.855 54.995c-.982 0-1.77-.8-1.77-1.77V33.502c0-.983.8-1.771 1.77-1.771h7.399c.982 0 1.77.8 1.77 1.77v19.71c0 .982-.8 1.77-1.77 1.77H5.855v.013zm46.538-16.24a1.63 1.63 0 00-.218 1.976c0 .013.497.862.558 2.026.085 1.589-.68 2.996-2.28 4.197-.57.436-.8 1.188-.558 1.867 0 .013.521 1.614-.328 3.13-.812 1.455-2.62 2.498-5.36 3.08-2.196.473-5.18.558-8.842.267h-.17c-7.8.17-15.683-.849-15.768-.86h-.012l-1.225-.147c.073-.34.11-.703.11-1.067V33.503c0-.522-.086-1.031-.231-1.504.218-.813.825-2.62 2.256-4.16 5.446-4.318 10.77-18.885 11-19.516.098-.254.122-.533.073-.812-.206-1.359-.133-3.02.158-3.518.643.012 2.377.194 3.42 1.638 1.238 1.71 1.19 4.766-.145 8.817-2.038 6.174-2.208 9.424-.594 10.856.8.715 1.867.752 2.644.473.74-.17 1.443-.316 2.11-.425.049-.012.11-.024.158-.036 3.723-.813 10.394-1.31 12.71.8 1.966 1.795.57 4.173.413 4.427-.449.68-.315 1.565.291 2.11.012.013 1.286 1.214 1.346 2.827.049 1.08-.46 2.183-1.516 3.275z"/></g><defs><clipPath id="axclip0"><path transform="translate(0 .743)" d="M0 0h58v58H0z"/></clipPath></defs></symbol><symbol viewBox="0 0 61 62" id="medal" xmlns="http://www.w3.org/2000/svg"><g clip-path="url(#ayclip0)"><path d="M38.286 8.343a17.333 17.333 0 00-20.112 3.226c-6.183 6.183-6.802 16.041-1.44 22.932a.96.96 0 001.35.168.962.962 0 00.168-1.35c-4.768-6.126-4.217-14.892 1.282-20.39a15.414 15.414 0 0117.885-2.87.961.961 0 10.867-1.716zm7.677 7.678a.962.962 0 00-1.717.867 15.415 15.415 0 01-2.87 17.882c-5.499 5.499-14.265 6.05-20.392 1.282a.961.961 0 00-1.18 1.517 17.274 17.274 0 0010.635 3.644c4.473 0 8.93-1.717 12.296-5.083a17.334 17.334 0 003.228-20.109zM43.48 12.36a17.596 17.596 0 00-1.535-1.535.961.961 0 10-1.273 1.44 15.715 15.715 0 011.367 1.368.959.959 0 001.357.084.961.961 0 00.084-1.357z"/><path d="M53.144 25.573a3.262 3.262 0 000-3.41L51.88 20.09a1.353 1.353 0 01-.18-.914l.376-2.395a3.26 3.26 0 00-1.308-3.157l-1.96-1.426a1.354 1.354 0 01-.519-.775l-.57-2.359a3.261 3.261 0 00-2.413-2.413l-2.359-.57a1.353 1.353 0 01-.775-.52l-1.426-1.96a3.26 3.26 0 00-3.157-1.308l-2.396.377c-.316.05-.64-.015-.913-.181l-2.075-1.265a3.262 3.262 0 00-3.409 0l-2.074 1.264a1.349 1.349 0 01-.914.181l-2.395-.377a3.26 3.26 0 00-3.157 1.309l-1.425 1.96c-.19.26-.464.443-.776.519l-2.359.57a3.262 3.262 0 00-2.412 2.413l-.571 2.359c-.075.311-.26.586-.519.775l-1.96 1.426a3.26 3.26 0 00-1.309 3.156l.377 2.397c.05.316-.015.64-.181.913l-1.265 2.075a3.262 3.262 0 000 3.409l1.265 2.074c.166.273.23.598.181.914l-.377 2.395a3.26 3.26 0 001.308 3.157l1.96 1.425c.26.189.444.464.52.776l.57 2.358a3.261 3.261 0 002.412 2.413l.985.238-6.666 14.87a.961.961 0 00.991 1.349l5.364-.642 3.09 4.431a.962.962 0 001.666-.156l6.808-15.188.863.526a3.27 3.27 0 003.41 0l.893-.545 6.817 15.207a.961.961 0 001.666.156l3.09-4.43 5.364.64a.962.962 0 00.99-1.347l-6.67-14.879.949-.23a3.261 3.261 0 002.412-2.411l.571-2.36c.076-.31.26-.586.52-.774l1.96-1.426a3.26 3.26 0 001.308-3.157l-.377-2.396c-.05-.316.015-.64.181-.914l1.265-2.074zm-33.08 33.266l-2.449-3.512a.961.961 0 00-.902-.404l-4.251.508 6.073-13.549c.111.082.211.18.293.293l1.426 1.96c.135.186.288.355.454.505l-3.197 7.132a.961.961 0 001.754.786l3.186-7.106c.313.043.636.043.96-.008l2.396-.377c.143-.023.288-.02.43.002l-6.173 13.77zm28.513-3.408l-4.25-.508a.96.96 0 00-.903.404l-2.45 3.512L34.8 45.064a1.32 1.32 0 01.392.003l2.395.377c.337.053.673.051.999.003l3.188 7.111a.961.961 0 101.754-.786l-3.21-7.158c.156-.144.299-.303.426-.479l1.426-1.96c.09-.123.2-.23.323-.315l6.084 13.57zm2.926-30.86l-1.265 2.075a3.278 3.278 0 00-.44 2.214l.378 2.396a1.346 1.346 0 01-.54 1.303l-1.96 1.426a3.278 3.278 0 00-1.257 1.877l-.571 2.36c-.12.494-.501.875-.996.995l-2.36.571a3.278 3.278 0 00-1.877 1.257l-1.426 1.96c-.3.412-.799.619-1.303.54l-2.395-.377a3.278 3.278 0 00-2.214.438l-2.074 1.265a1.347 1.347 0 01-1.407 0l-2.074-1.265a3.277 3.277 0 00-2.214-.439l-2.396.377a1.346 1.346 0 01-1.303-.54l-1.426-1.96a3.278 3.278 0 00-1.878-1.257l-2.359-.57a1.347 1.347 0 01-.996-.996l-.57-2.36a3.278 3.278 0 00-1.257-1.877l-1.96-1.426c-.412-.3-.62-.8-.54-1.303l.377-2.395a3.278 3.278 0 00-.439-2.214l-1.264-2.074a1.347 1.347 0 010-1.408l1.264-2.074c.404-.662.56-1.448.44-2.213l-.378-2.396a1.346 1.346 0 01.54-1.303l1.961-1.426a3.278 3.278 0 001.257-1.878l.57-2.36c.12-.494.502-.875.996-.995l2.36-.57a3.277 3.277 0 001.877-1.257l1.426-1.96c.3-.413.799-.62 1.303-.54l2.395.377a3.277 3.277 0 002.214-.44l2.074-1.264a1.347 1.347 0 011.407 0l2.075 1.265c.661.403 1.447.56 2.213.439l2.396-.377a1.347 1.347 0 011.303.54l1.426 1.96a3.278 3.278 0 001.878 1.257l2.359.57c.494.12.876.502.996.997l.57 2.358a3.277 3.277 0 001.257 1.878l1.96 1.426c.412.3.62.8.54 1.303l-.377 2.396c-.12.765.035 1.552.439 2.213l1.265 2.074a1.35 1.35 0 010 1.408z"/><path d="M41.749 20.877A1.72 1.72 0 0040.3 19.69l-5.784-.686-2.44-5.29a1.72 1.72 0 00-1.577-1.009 1.72 1.72 0 00-1.578 1.01l-2.44 5.29-5.784.685a1.72 1.72 0 00-1.447 1.188 1.72 1.72 0 00.472 1.812L24 26.644l-1.135 5.713a1.72 1.72 0 00.683 1.744c.306.222.66.335 1.018.335.29 0 .583-.075.85-.225l5.084-2.845 5.082 2.845a1.72 1.72 0 001.87-.11 1.72 1.72 0 00.683-1.744l-1.136-5.713 4.277-3.955a1.72 1.72 0 00.473-1.812zm-6.45 4.72a.961.961 0 00-.29.894l1.162 5.846-5.202-2.911a.96.96 0 00-.939 0l-5.201 2.911 1.161-5.846a.96.96 0 00-.29-.893l-4.376-4.047 5.92-.702a.962.962 0 00.76-.552l2.496-5.413 2.496 5.413c.14.303.428.512.76.552l5.92.702-4.377 4.047z"/></g><defs><clipPath id="ayclip0"><path transform="translate(0 .743)" d="M0 0h61v61H0z"/></clipPath></defs></symbol><symbol viewBox="0 0 18 18" id="paid-questions" xmlns="http://www.w3.org/2000/svg"><path d="M17.546 15.703l-.436-1.52a.528.528 0 01.065-.354A6.01 6.01 0 0018 10.786a6.031 6.031 0 00-5.322-5.981 7.045 7.045 0 01.408 2.85h1.973c.284 0 .528.218.542.502a.527.527 0 01-.527.552H12.94a7.024 7.024 0 01-.53 1.55h2.648c.284 0 .528.218.542.502a.527.527 0 01-.527.553h-3.286c-.42.59-.93 1.113-1.508 1.55h4.779c.284 0 .528.218.542.501a.527.527 0 01-.527.553h-6.19a.524.524 0 01-.312-.102c-.49.19-1.006.326-1.541.403a6.02 6.02 0 007.989 1.766.527.527 0 01.353-.066l1.52.436a.527.527 0 00.653-.652z"/><path d="M6.023 13.236a6.03 6.03 0 006.023-6.022A6.012 6.012 0 006.023 1.19 6.03 6.03 0 000 7.214c0 1.07.285 2.123.825 3.042a.528.528 0 01.065.354l-.436 1.52a.527.527 0 00.652.653l1.52-.436a.526.526 0 01.354.065c.92.54 1.971.824 3.043.824zm0-2.141a.537.537 0 01-.528-.528c-.012-.284.252-.527.528-.527.295 0 .514.242.527.527.013.285-.251.528-.527.528zm-2.02-5.743c0-1.114.906-2.02 2.02-2.02 1.113 0 2.019.906 2.019 2.02 0 .93-.633 1.716-1.492 1.949v1.29a.527.527 0 01-1.055 0V6.843c0-.29.237-.527.528-.527a.966.966 0 000-1.93.966.966 0 00-.965.965.527.527 0 01-1.054 0z"/></symbol><symbol viewBox="0 0 64 64" id="paper" xmlns="http://www.w3.org/2000/svg"><g clip-path="url(#baclip0)"><path d="M63.473 8.077L55.918.872c-.288-.275-.585-.56-1.14-.56H24.513c-.884 0-1.603.719-1.603 1.603v4.923L12.243 8.666a1.58 1.58 0 00-1.282 1.822l.541 3.157c-3.467 1.167-7.026 2.37-10.463 3.604a1.587 1.587 0 00-.948 2.017l6.836 19.002a.938.938 0 101.764-.635L1.956 18.912c3.238-1.16 6.59-2.294 9.867-3.397l3.222 18.781 3.706 21.629a1.588 1.588 0 001.823 1.285l10.04-1.723 7.844-1.344-11.798 4.24-9.305 3.346L10.13 41.63a.937.937 0 10-1.764.635l7.328 20.384c.235.641.842 1.04 1.484 1.04.177 0 .357-.031.533-.095l9.584-3.446 21.761-7.822 4.158-.712h9.184c.884 0 1.603-.721 1.603-1.607V9.134c0-.561-.304-.848-.527-1.057zM60.99 8.3H56.3l-.117.001c-.225.001-.75.005-.884-.127-.03-.03-.067-.133-.067-.323l-.01-5.052L60.988 8.3zm1.136 41.44h-37.34V31.468a.938.938 0 00-1.875 0v18.539c0 .886.719 1.607 1.603 1.607h17.601l-11.818 2.025-9.747 1.673-3.656-21.333-4.034-23.516L22.91 8.74v18.378a.937.937 0 101.876 0V2.186h28.559l.012 5.666c0 .687.21 1.242.621 1.651.633.629 1.528.673 2.083.673l.135-.001h5.93v39.564z"/><path d="M29.304 14.869c0 .517.42.937.937.937h26.805a.937.937 0 100-1.875H30.24a.938.938 0 00-.937.938zm27.742 5.722H30.24a.938.938 0 000 1.875h26.805a.938.938 0 000-1.875zm0 6.661H30.24a.938.938 0 000 1.875h26.805a.937.937 0 100-1.875zm0 6.66H30.24a.938.938 0 000 1.875h26.805a.938.938 0 000-1.875zm0 6.66H30.24a.938.938 0 000 1.875h26.805a.937.937 0 100-1.875z"/></g><defs><clipPath id="baclip0"><path d="M0 0h64v64H0z"/></clipPath></defs></symbol><symbol viewBox="0 0 17 17" id="paper-clip" xmlns="http://www.w3.org/2000/svg"><g clip-path="url(#bbclip0)"><path d="M12.642 6.999s.688-.523.164-1.046c-.523-.523-1.032.152-1.032.152l-5.26 5.262s-1.233 1.59-2.17.629c-.936-.963.628-2.17.628-2.17L11.87 2.93s1.61-1.774 3.124-.262c1.51 1.513-.268 3.126-.268 3.126l-7.75 7.751s-2.48 2.865-4.776.57c-2.296-2.297.597-4.75.597-4.75L8.682 3.48s.659-.55.165-1.046C8.35 1.94 7.802 2.6 7.802 2.6L1.05 9.35s-2.55 2.795.297 5.641c2.847 2.848 5.644.299 5.644.299l9.28-9.282s1.857-2.048-.357-4.263-4.262-.358-4.262-.358L3.666 9.373s-2.045 1.663-.19 3.518c1.857 1.857 3.49-.219 3.49-.219L12.642 7z"/></g><defs><clipPath id="bbclip0"><path d="M0 0h17v17H0z"/></clipPath></defs></symbol><symbol viewBox="0 0 19 19" id="phone" xmlns="http://www.w3.org/2000/svg"><g clip-path="url(#bcclip0)"><path d="M18.483 13.944l-2.652-2.651c-.947-.947-2.556-.569-2.935.663-.284.852-1.231 1.325-2.084 1.136-1.893-.474-4.45-2.936-4.924-4.924-.284-.853.284-1.8 1.137-2.084 1.23-.379 1.61-1.988.663-2.935L5.036.497c-.758-.663-1.894-.663-2.557 0L.68 2.297C-1.12 4.19.87 9.208 5.32 13.66c4.45 4.45 9.47 6.534 11.364 4.64l1.799-1.8c.663-.757.663-1.893 0-2.556z"/></g><defs><clipPath id="bcclip0"><path d="M0 0h19v19H0z"/></clipPath></defs></symbol><symbol viewBox="0 0 19 19" id="pin" xmlns="http://www.w3.org/2000/svg"><g clip-path="url(#bdclip0)"><path d="M15.125 3.254C13.972 1.264 11.924.048 9.646.002a7.11 7.11 0 00-.292 0C7.076.048 5.028 1.264 3.875 3.254a6.615 6.615 0 00-.086 6.536L8.5 18.413a1.135 1.135 0 001 .587 1.135 1.135 0 001-.587l4.71-8.623a6.615 6.615 0 00-.086-6.536zM9.5 8.61a2.675 2.675 0 01-2.672-2.672A2.675 2.675 0 019.5 3.266a2.675 2.675 0 012.672 2.672A2.675 2.675 0 019.5 8.61z"/></g><defs><clipPath id="bdclip0"><path d="M0 0h19v19H0z"/></clipPath></defs></symbol><symbol viewBox="0 0 18 18" id="publications" xmlns="http://www.w3.org/2000/svg"><path d="M15.429 0H2.57A2.572 2.572 0 000 2.571V15.43A2.572 2.572 0 002.571 18H15.43A2.571 2.571 0 0018 15.429V2.57A2.571 2.571 0 0015.429 0zm-11.7 3.214H8.89a.771.771 0 110 1.543H3.73a.771.771 0 110-1.543zm0 3.343H8.87a.771.771 0 110 1.543H3.73a.771.771 0 110-1.543zm10.542 8.229H3.73a.771.771 0 110-1.543h10.54a.771.771 0 110 1.543zm0-3.343H3.73a.771.771 0 110-1.543h10.54a.771.771 0 110 1.543z"/></symbol><symbol viewBox="0 0 20 20" id="question" xmlns="http://www.w3.org/2000/svg"><g clip-path="url(#bfclip0)"><path d="M9.73 0c3.46 0 6.865 1.593 6.865 5.404 0 3.515-4.027 4.866-4.892 6.136-.649.945-.432 2.272-2.216 2.272-1.162 0-1.73-.945-1.73-1.81 0-3.219 4.729-3.947 4.729-6.597 0-1.459-.97-2.324-2.593-2.324-3.46 0-2.109 3.567-4.73 3.567-.945 0-1.757-.568-1.757-1.648 0-2.65 3.026-5 6.324-5zm-.135 15.566c1.215 0 2.217 1 2.217 2.218S10.812 20 9.595 20a2.225 2.225 0 01-2.217-2.217 2.227 2.227 0 012.217-2.217z"/></g><defs><clipPath id="bfclip0"><path d="M0 0h20v20H0z"/></clipPath></defs></symbol><symbol viewBox="0 0 18 18" id="question-mark" xmlns="http://www.w3.org/2000/svg"><path d="M9 0C4.037 0 0 4.037 0 9s4.037 9 9 9 9-4.037 9-9-4.037-9-9-9zm0 14.25a.75.75 0 110-1.5.75.75 0 010 1.5zm1.187-4.769a.753.753 0 00-.437.682v.337a.75.75 0 11-1.5 0v-.337A2.26 2.26 0 019.559 8.12c.764-.352 1.316-1.286 1.316-1.744 0-1.033-.84-1.875-1.875-1.875a1.877 1.877 0 00-1.875 1.875.75.75 0 11-1.5 0A3.38 3.38 0 019 3a3.38 3.38 0 013.375 3.375c0 1.013-.879 2.503-2.188 3.106z"/></symbol><symbol viewBox="0 0 56 56" id="sad" xmlns="http://www.w3.org/2000/svg"><path d="M28 0C12.561 0 0 12.561 0 28s12.561 28 28 28c15.44 0 28-12.561 28-28S43.44 0 28 0zm0 53.565C13.903 53.565 2.435 42.097 2.435 28 2.435 13.903 13.903 2.435 28 2.435c14.096 0 25.565 11.468 25.565 25.565 0 14.097-11.469 25.565-25.565 25.565z"/><path d="M21.914 23.13a3.657 3.657 0 00-3.652-3.652 3.657 3.657 0 00-3.653 3.652 3.657 3.657 0 003.653 3.653 3.657 3.657 0 003.652-3.653zm-4.87 0c0-.67.547-1.217 1.218-1.217.67 0 1.217.547 1.217 1.217a1.22 1.22 0 01-1.217 1.218 1.22 1.22 0 01-1.218-1.218zm20.696-3.652a3.657 3.657 0 00-3.652 3.652 3.657 3.657 0 003.652 3.653 3.657 3.657 0 003.652-3.653 3.657 3.657 0 00-3.652-3.652zm0 4.87a1.219 1.219 0 111.217-1.217c0 .67-.545 1.217-1.217 1.217zM28 34.087c-4.539 0-8.863 1.922-11.864 5.275a1.218 1.218 0 001.814 1.624c2.54-2.838 6.203-4.464 10.05-4.464 3.847 0 7.51 1.626 10.05 4.464a1.213 1.213 0 001.719.095 1.22 1.22 0 00.094-1.72c-3-3.35-7.324-5.274-11.863-5.274z"/></symbol><symbol viewBox="0 0 28 28" id="search" xmlns="http://www.w3.org/2000/svg"><path d="M25.97 25.97a.952.952 0 01-1.35 0l-5.558-5.559a10.476 10.476 0 01-6.759 2.448c-2.818 0-5.47-1.099-7.463-3.092a10.487 10.487 0 01-3.09-7.463c0-2.818 1.097-5.47 3.09-7.463a10.487 10.487 0 017.463-3.091c2.819 0 5.47 1.098 7.463 3.091a10.487 10.487 0 013.092 7.463 10.47 10.47 0 01-2.448 6.758l5.56 5.56a.954.954 0 010 1.349zM6.19 18.419c3.37 3.372 8.856 3.371 12.227 0 3.371-3.37 3.371-8.857 0-12.228a8.618 8.618 0 00-6.114-2.528A8.62 8.62 0 006.19 6.19c-3.37 3.371-3.37 8.857 0 12.228z"/></symbol><symbol viewBox="0 0 18 18" id="telegram" xmlns="http://www.w3.org/2000/svg"><g clip-path="url(#bjclip0)"><path d="M13.945 3.916L4.662 9.724.799 8.523a1.09 1.09 0 01-.25-.107l.002-.002c.08-.07.226-.16.464-.253h.001L16.977 2.05l.002-.001c.253-.093.375-.03.418.011.046.045.156.213.073.649l-.011.054-2.716 12.725c-.088.384-.215.477-.26.498-.041.018-.178.049-.481-.114L9.889 12.86l-.338-.247-.302.29-1.923 1.837.221-3.116 7.518-6.75c.117-.104.28-.288.29-.547a.613.613 0 00-.422-.602.932.932 0 00-.512-.017 1.459 1.459 0 00-.476.208zm.717.764h-.003.003zm-.252-.562a.04.04 0 01.007-.008l-.007.008zM.492 8.48v-.002.002z"/></g><defs><clipPath id="bjclip0"><path d="M0 0h18v18H0z"/></clipPath></defs></symbol><symbol viewBox="0 0 24 24" id="user" xmlns="http://www.w3.org/2000/svg"><path d="M12 12.889a6.444 6.444 0 100-12.89 6.444 6.444 0 000 12.89zm3.054-3.894c-.293.97-1.549 1.698-3.054 1.698s-2.76-.729-3.054-1.698h6.108zm7.835 10.56v2.125c0 .315-.232.68-.52.809C21.255 22.985 18.214 24 12 24c-6.213 0-9.254-1.015-10.368-1.511-.288-.128-.52-.494-.52-.81v-2.123c0-3.184 2.424-5.825 5.516-6.178a.516.516 0 01.31.085A8.604 8.604 0 0012 15.11a8.604 8.604 0 005.063-1.648.516.516 0 01.31-.085c3.092.354 5.516 2.994 5.516 6.178z"/></symbol><symbol viewBox="0 0 24 24" id="vk" xmlns="http://www.w3.org/2000/svg"><path d="M12.145 19.5c3.472 0 2.234-2.198 2.502-2.83-.004-.472-.008-.926.008-1.202.22.062.739.325 1.811 1.367 1.655 1.67 2.078 2.665 3.415 2.665h2.461c.78 0 1.186-.323 1.389-.594.196-.262.388-.722.178-1.438-.549-1.724-3.751-4.701-3.95-5.015a2.84 2.84 0 01.103-.175h-.002c.632-.835 3.044-4.449 3.399-5.895a.019.019 0 00.002-.008c.192-.66.016-1.088-.166-1.33-.274-.362-.71-.545-1.299-.545h-2.461c-.824 0-1.449.415-1.765 1.172-.529 1.345-2.015 4.111-3.129 5.09a64.114 64.114 0 01.007-3.233c.036-1.535.152-3.029-1.441-3.029H9.339c-.998 0-1.953 1.09-.919 2.384.904 1.134.325 1.766.52 4.912-.76-.815-2.112-3.016-3.068-5.829-.268-.761-.674-1.466-1.817-1.466H1.594C.596 4.501 0 5.045 0 5.956 0 8.002 4.529 19.5 12.145 19.5zM4.055 6.001c.217 0 .239 0 .4.457.979 2.883 3.175 7.149 4.779 7.149 1.205 0 1.205-1.235 1.205-1.7l-.001-3.702C10.372 6.98 9.926 6.37 9.633 6l3.508.004c.002.017-.02 4.095.01 5.083 0 1.403 1.114 2.207 2.853.447 1.835-2.071 3.104-5.167 3.155-5.293.075-.18.14-.241.376-.241h2.471l-.002.009c-.225 1.05-2.446 4.396-3.189 5.435l-.034.05c-.327.534-.593 1.124.045 1.954h.001c.058.07.209.234.429.462.684.706 3.03 3.12 3.238 4.08-.138.022-.288.006-2.613.011-.495 0-.882-.74-2.359-2.23-1.328-1.292-2.19-1.82-2.975-1.82-1.524 0-1.413 1.237-1.399 2.733.005 1.622-.005 1.109.006 1.211-.089.035-.344.105-1.009.105C5.8 18 1.668 7.929 1.509 6.004c.055-.005.812-.002 2.546-.003z"/></symbol><symbol viewBox="0 0 52 52" id="whatsapp" xmlns="http://www.w3.org/2000/svg"><path d="M26 0C11.663 0 0 11.663 0 26c0 4.891 1.359 9.639 3.937 13.762C2.91 43.36 1.055 50.166 1.035 50.237a.996.996 0 00.27.981c.263.253.643.343.989.237l10.306-3.17A25.936 25.936 0 0026 52c14.337 0 26-11.663 26-26S40.337 0 26 0zm0 50a23.94 23.94 0 01-12.731-3.651 1 1 0 00-.825-.108l-8.999 2.77a991.452 991.452 0 012.538-9.13c.08-.278.035-.578-.122-.821A23.907 23.907 0 012 26C2 12.767 12.767 2 26 2s24 10.767 24 24-10.767 24-24 24z"/><path d="M42.985 32.126c-1.846-1.025-3.418-2.053-4.565-2.803-.876-.572-1.509-.985-1.973-1.218-1.297-.647-2.28-.19-2.654.188a1 1 0 00-.125.152c-1.347 2.021-3.106 3.954-3.621 4.058-.595-.093-3.38-1.676-6.148-3.981-2.826-2.355-4.604-4.61-4.865-6.146C20.847 20.51 21.5 19.336 21.5 18c0-1.377-3.212-7.126-3.793-7.707-.583-.582-1.896-.673-3.903-.273a1.01 1.01 0 00-.511.273c-.243.243-5.929 6.04-3.227 13.066 2.966 7.711 10.579 16.674 20.285 18.13 1.103.165 2.137.247 3.105.247 5.71 0 9.08-2.873 10.029-8.572a.996.996 0 00-.5-1.038zm-12.337 7.385c-10.264-1.539-16.729-11.708-18.715-16.87-1.97-5.12 1.663-9.685 2.575-10.717.742-.126 1.523-.179 1.849-.128.681.947 3.039 5.402 3.143 6.204 0 .525-.171 1.256-2.207 3.293A.996.996 0 0017 22c0 5.236 11.044 12.5 13 12.5 1.701 0 3.919-2.859 5.182-4.722a.949.949 0 01.371.116c.36.181.984.588 1.773 1.104 1.042.681 2.426 1.585 4.06 2.522-.742 3.57-2.816 7.181-10.738 5.991z"/></symbol><symbol viewBox="0 0 20 20" id="writing" xmlns="http://www.w3.org/2000/svg"><path d="M13.768 8.594a.781.781 0 00-.781-.781H4.94a.781.781 0 100 1.562h8.047c.431 0 .781-.35.781-.781zM4.94 10.938a.781.781 0 000 1.562h4.887a.781.781 0 100-1.563H4.94z"/><path d="M6.776 18.438H4.163a1.564 1.564 0 01-1.562-1.563V3.125c0-.862.7-1.563 1.562-1.563h9.605c.862 0 1.563.701 1.563 1.563V7.93a.781.781 0 001.562 0V3.125A3.129 3.129 0 0013.768 0H4.163a3.129 3.129 0 00-3.125 3.125v13.75A3.129 3.129 0 004.163 20h2.613a.781.781 0 100-1.563z"/><path d="M18.277 11.311a2.346 2.346 0 00-3.314 0l-4.29 4.28a.78.78 0 00-.195.325l-.934 3.076a.781.781 0 00.956.98l3.153-.874a.78.78 0 00.344-.2l4.28-4.272c.914-.914.914-2.4 0-3.315zm-5.239 6.336l-1.586.44.464-1.529 2.894-2.887 1.105 1.105-2.877 2.871zm4.135-4.126l-.152.15-1.105-1.104.151-.15a.782.782 0 011.106 1.104zm-4.186-8.833H4.94a.781.781 0 100 1.562h8.047a.781.781 0 100-1.563z"/></symbol></svg>