<svg width="27" height="27" viewBox="0 0 27 27" fill="none" xmlns="http://www.w3.org/2000/svg">
<g clip-path="url(#clip0)">
<path d="M14.4574 1.92798C7.53032 1.92798 1.91488 7.10893 1.91488 13.5C1.91488 15.2363 2.3301 16.8828 3.07266 18.3609L0.10581 23.7255C-0.0590827 24.0235 -0.029263 24.3912 0.181366 24.6589C0.344307 24.866 0.591281 24.9821 0.846731 24.9821C0.92131 24.9821 0.996561 24.9722 1.07078 24.9517L7.56557 23.1691C9.54343 24.3716 11.9116 25.072 14.4574 25.072C21.3846 25.072 27.0001 19.8911 27.0001 13.5C27 7.10893 21.3845 1.92798 14.4574 1.92798ZM13.2866 8.85934C13.2866 8.23727 13.7927 7.73119 14.4148 7.73119C15.0369 7.73119 15.5429 8.23727 15.5429 8.85934V15.0184C15.5429 15.6405 15.0368 16.1466 14.4148 16.1466C13.7927 16.1466 13.2866 15.6405 13.2866 15.0184V8.85934ZM14.4147 19.2688C13.7302 19.2688 13.1734 18.7119 13.1734 18.0275C13.1734 17.3428 13.7303 16.786 14.4147 16.786C15.0994 16.786 15.6561 17.3429 15.6561 18.0275C15.6562 18.712 15.0994 19.2688 14.4147 19.2688Z" fill="#17BA9B"/>
</g>
<defs>
<clipPath id="clip0">
<rect width="27" height="27" fill="white"/>
</clipPath>
</defs>
</svg>
