<svg width="28" height="28" viewBox="0 0 28 28" fill="none" xmlns="http://www.w3.org/2000/svg">
<g clip-path="url(#clip0)">
<path d="M22.1667 14C24.0997 14 25.6667 12.433 25.6667 10.5C25.6667 8.567 24.0997 7 22.1667 7C20.2338 7 18.6667 8.567 18.6667 10.5C18.6667 12.433 20.2338 14 22.1667 14Z" fill="#17BA9B"/>
<path d="M5.83325 14C7.76625 14 9.33325 12.433 9.33325 10.5C9.33325 8.567 7.76625 7 5.83325 7C3.90026 7 2.33325 8.567 2.33325 10.5C2.33325 12.433 3.90026 14 5.83325 14Z" fill="#17BA9B"/>
<path d="M13.9999 12.8333C16.5773 12.8333 18.6666 10.744 18.6666 8.16666C18.6666 5.58933 16.5773 3.49999 13.9999 3.49999C11.4226 3.49999 9.33325 5.58933 9.33325 8.16666C9.33325 10.744 11.4226 12.8333 13.9999 12.8333Z" fill="#17BA9B"/>
<path d="M25.6666 15.1667H21.5396C21.9511 15.8754 22.1674 16.6805 22.1666 17.5V25.6667H26.8333C27.1427 25.6667 27.4395 25.5437 27.6583 25.3249C27.8771 25.1062 28 24.8094 28 24.5V17.5C28 16.8812 27.7541 16.2877 27.3166 15.8501C26.879 15.4125 26.2855 15.1667 25.6666 15.1667Z" fill="#17BA9B"/>
<path d="M6.46115 15.1667H2.33333C1.71449 15.1667 1.121 15.4125 0.683417 15.8501C0.245833 16.2877 0 16.8812 0 17.5L0 24.5C0 24.8094 0.122916 25.1062 0.341709 25.3249C0.560501 25.5437 0.857247 25.6667 1.16667 25.6667H5.83333V17.5C5.83274 16.6804 6.04937 15.8753 6.46115 15.1667Z" fill="#17BA9B"/>
<path d="M17.5 12.8333H16.3333L14 19.8333L11.6667 12.8333H10.5C9.57174 12.8333 8.6815 13.2021 8.02513 13.8585C7.36875 14.5148 7 15.4051 7 16.3333V26.8333C7 27.1427 7.12292 27.4395 7.34171 27.6583C7.5605 27.8771 7.85725 28 8.16667 28H19.8333C20.1428 28 20.4395 27.8771 20.6583 27.6583C20.8771 27.4395 21 27.1427 21 26.8333V16.3333C21 15.4051 20.6313 14.5148 19.9749 13.8585C19.3185 13.2021 18.4283 12.8333 17.5 12.8333Z" fill="#17BA9B"/>
</g>
<defs>
<clipPath id="clip0">
<rect width="28" height="28" fill="white"/>
</clipPath>
</defs>
</svg>
