<svg width="27" height="28" viewBox="0 0 27 28" fill="none" xmlns="http://www.w3.org/2000/svg">
<path d="M17.7533 11.0908C19.5434 9.39826 21.9642 7.10921 22.1849 1.64062H23.7832V0H3.2168V1.64062H4.81512C5.03576 7.10921 7.45659 9.39826 9.24671 11.0908C10.4475 12.2262 11.127 12.9211 11.127 14C11.127 15.0789 10.4475 15.7738 9.24671 16.9092C7.45659 18.6017 5.03576 20.8908 4.81512 26.3594H3.2168V28H23.7832V26.3594H22.1849C21.9642 20.8908 19.5434 18.6017 17.7533 16.9092C16.5525 15.7738 15.873 15.0789 15.873 14C15.873 12.9211 16.5525 12.2262 17.7533 11.0908ZM12.709 20.149C12.4647 20.2012 12.2233 20.2773 11.9877 20.3784L7.14266 22.4575C7.93389 20.3712 9.20827 19.1657 10.3126 18.1216C11.545 16.9564 12.709 15.8558 12.709 14V20.149ZM16.6874 18.1216C17.7917 19.1657 19.0661 20.3712 19.8573 22.4575L15.0123 20.3783C14.7767 20.2773 14.5353 20.2012 14.291 20.1489V14C14.291 15.8558 15.455 16.9564 16.6874 18.1216ZM7.11487 5.46875C6.73239 4.43521 6.46824 3.1873 6.39911 1.64062H20.6008C20.5317 3.1873 20.2676 4.43521 19.8851 5.46875H7.11487Z" fill="#17BA9B"/>
</svg>
