<svg width="30" height="30" viewBox="0 0 30 30" fill="none" xmlns="http://www.w3.org/2000/svg">
<path d="M5.07553 16.9686C5.07553 17.2931 5.10725 17.6094 5.15166 17.9212C2.25408 17.6012 0 15.1469 0 12.1641V10.1593C0 6.95895 2.59396 4.36499 5.79426 4.36499H16.5109C19.0459 4.36499 21.1949 5.9955 21.9816 8.26318H11.777C8.08278 8.26318 5.07644 11.2686 5.07644 14.9638L5.07553 16.9686ZM30 24.5457L29.5215 24.9789C29.0474 25.4085 28.306 25.6351 27.3779 25.6351C25.9088 25.6351 23.7852 25.0061 22.2698 23.6067H12.1541C8.70816 23.6067 5.90574 20.8043 5.90574 17.3593V15.3544C5.90574 11.9085 8.70906 9.10608 12.1541 9.10608H22.8707C26.3166 9.10608 29.119 11.9094 29.119 15.3544V17.3593C29.119 19.0106 28.4547 20.6022 27.2855 21.7713C27.6571 22.8526 28.3776 23.6828 29.4308 24.2429L30 24.5457ZM11.5305 15.078H20.5414V13.5154H11.5305V15.078ZM24.048 17.1408H11.5305V18.7025H24.048V17.1408Z" fill="#17BA9B"/>
</svg>
