<svg width="27" height="27" viewBox="0 0 27 27" fill="none" xmlns="http://www.w3.org/2000/svg">
<g clip-path="url(#clip0)">
<path d="M21.4934 4.62411C19.8548 1.79628 16.9443 0.0686475 13.7077 0.00262402C13.5696 -0.000223633 13.4305 -0.000223633 13.2923 0.00262402C10.0558 0.0686475 7.14524 1.79628 5.50658 4.62411C3.83163 7.51458 3.7858 10.9866 5.38397 13.9118L12.0793 26.1666C12.0823 26.1721 12.0853 26.1775 12.0884 26.1829C12.383 26.6949 12.9107 27.0005 13.5001 27.0005C14.0895 27.0005 14.6172 26.6948 14.9117 26.1829C14.9148 26.1775 14.9178 26.1721 14.9208 26.1666L21.6161 13.9118C23.2142 10.9866 23.1684 7.51458 21.4934 4.62411ZM13.5 12.2349C11.4064 12.2349 9.70312 10.5316 9.70312 8.43801C9.70312 6.34441 11.4064 4.64114 13.5 4.64114C15.5936 4.64114 17.2969 6.34441 17.2969 8.43801C17.2969 10.5316 15.5937 12.2349 13.5 12.2349Z" fill="white"/>
</g>
<defs>
<clipPath id="clip0">
<rect width="27" height="27" fill="white"/>
</clipPath>
</defs>
</svg>
