<svg width="27" height="27" viewBox="0 0 27 27" fill="none" xmlns="http://www.w3.org/2000/svg">
<g clip-path="url(#clip0)">
<path d="M14.4579 1.9281C7.53075 1.9281 1.91539 7.10903 1.91539 13.5001C1.91539 15.2364 2.3306 16.8829 3.07317 18.3609L0.106328 23.7255C-0.0586248 24.0235 -0.0287442 24.3912 0.181823 24.659C0.344763 24.866 0.591675 24.9821 0.847246 24.9821C0.921825 24.9821 0.997076 24.9722 1.07129 24.9517L7.56611 23.1691C9.54385 24.3716 11.912 25.072 14.4579 25.072C21.385 25.072 27.0005 19.8912 27.0005 13.5001C27.0005 7.10903 21.385 1.9281 14.4579 1.9281ZM14.4369 19.4452C13.7523 19.4452 13.1956 18.8883 13.1956 18.2038C13.1956 17.5193 13.7524 16.9624 14.4369 16.9624C15.1215 16.9624 15.6783 17.5194 15.6783 18.2038C15.6784 18.8883 15.1216 19.4452 14.4369 19.4452ZM15.7374 13.5399C15.5744 13.6514 15.4617 13.7335 15.4007 13.7851V15.0823C15.4007 15.6135 14.9683 16.0458 14.4371 16.0458C13.9056 16.0458 13.4735 15.6135 13.4735 15.0823V13.6847C13.4735 12.7529 14.1535 12.2881 14.6501 11.9488C15.1861 11.5826 15.5402 11.3407 15.5402 10.5852C15.5402 9.9769 15.0454 9.48204 14.4371 9.48204C13.8287 9.48204 13.334 9.9769 13.334 10.5852C13.334 11.1165 12.9016 11.5487 12.3703 11.5487C11.839 11.5487 11.4066 11.1165 11.4066 10.5852C11.4066 8.91431 12.7661 7.55493 14.437 7.55493C16.1078 7.55493 17.4672 8.91431 17.4672 10.5852C17.4673 12.358 16.3844 13.098 15.7374 13.5399Z" fill="#17BA9B"/>
</g>
<defs>
<clipPath id="clip0">
<rect width="27" height="27" fill="white"/>
</clipPath>
</defs>
</svg>
