<svg width="24" height="24" viewBox="0 0 24 24" fill="none" xmlns="http://www.w3.org/2000/svg">
<path d="M12.0002 12.8889C15.5594 12.8889 18.4446 10.0036 18.4446 6.44447C18.4446 2.88533 15.5594 0 12.0002 0C8.44102 0 5.55576 2.88529 5.55576 6.44443C5.55576 10.0036 8.44102 12.8889 12.0002 12.8889ZM15.0542 8.99514C14.7611 9.96447 13.5053 10.6931 12.0002 10.6931C10.4951 10.6931 9.23929 9.96443 8.94615 8.99514H15.0542ZM22.8891 19.5556V21.6798C22.8891 21.9947 22.6573 22.3606 22.3696 22.4886C21.2548 22.9847 18.2139 24 12.0002 24C5.78643 24 2.7456 22.9847 1.63078 22.4886C1.34313 22.3606 1.11133 21.9947 1.11133 21.6798V19.5556C1.11133 16.3723 3.53501 13.7315 6.62764 13.3778C6.7216 13.367 6.86094 13.4073 6.93756 13.4627C8.36349 14.495 10.1092 15.1111 12.0002 15.1111C13.8912 15.1111 15.637 14.495 17.0628 13.4627C17.1395 13.4073 17.2788 13.367 17.3728 13.3778C20.4654 13.7315 22.8891 16.3723 22.8891 19.5556Z" fill="white"/>
</svg>
