<svg width="59" height="59" fill="none" xmlns="http://www.w3.org/2000/svg"><path d="M1.013 13.943h12.815V1.013L1.013 13.943z" fill="#17BA9B"/><path d="M45.057 31.229c-7.625 0-13.829 6.203-13.829 13.828C31.229 52.68 37.432 59 45.058 59 52.68 59 59 52.681 59 45.057c0-7.625-6.319-13.829-13.943-13.829zm6.407 13.321l-6.914 6.914a1.728 1.728 0 01-2.444 0l-3.457-3.457a1.728 1.728 0 112.444-2.444l2.235 2.235 5.692-5.692a1.728 1.728 0 112.444 2.444z" fill="#F90"/><path d="M8.643 38.143h20.594c2.675-6.094 8.75-10.372 15.82-10.372V5.186A5.191 5.191 0 0039.87 0H17.285v15.672c0 .955-.773 1.728-1.728 1.728H0v36.3C0 56.558 2.326 59 5.186 59h29.606c-3.352-2.496-5.807-6.247-6.671-10.486H8.643a1.728 1.728 0 110-3.457h19.129c0-1.184.121-2.34.349-3.457H8.643a1.728 1.728 0 110-3.457zM22.47 10.486h13.943a1.728 1.728 0 110 3.457H22.471a1.728 1.728 0 110-3.457zm0 6.914h13.943a1.728 1.728 0 110 3.457H22.471a1.728 1.728 0 110-3.457zM8.643 24.315h27.771a1.728 1.728 0 110 3.456H8.643a1.728 1.728 0 110-3.457zm0 6.913h21.505a1.728 1.728 0 110 3.457H8.643a1.728 1.728 0 110-3.457z" fill="#17BA9B"/></svg>