<svg width="59" height="59" fill="none" xmlns="http://www.w3.org/2000/svg"><g clip-path="url(#clip0)"><path d="M48.94 14.811h-1.294v10.06c0 7.454-6.064 13.517-13.517 13.517H14.81v1.295c0 5.547 4.513 10.06 10.06 10.06h20.666l10.628 8.856A1.729 1.729 0 0059 57.272v-32.4c0-5.556-4.495-10.06-10.06-10.06z" fill="#F90"/><path d="M44.189 24.871v-14.81A10.054 10.054 0 0034.129 0H10.06A10.054 10.054 0 000 10.06v32.4a1.73 1.73 0 002.835 1.328l10.628-8.857H34.13c5.547 0 10.06-4.512 10.06-10.06zm-22.095 2.655a1.729 1.729 0 11.001-3.458 1.729 1.729 0 010 3.458zm1.729-7.645v.362a1.729 1.729 0 01-3.457 0v-1.851c0-.955.774-1.729 1.728-1.729 1.6 0 2.9-1.301 2.9-2.9 0-1.6-1.3-2.9-2.9-2.9a2.88 2.88 0 00-2.05.849 2.88 2.88 0 00-.85 2.049 1.73 1.73 0 01-3.457.002v-.002c0-1.697.661-3.294 1.861-4.494a6.314 6.314 0 014.494-1.861 6.365 6.365 0 016.36 6.357 6.368 6.368 0 01-4.63 6.118z" fill="#17BA9B"/></g><defs><clipPath id="clip0"><path fill="#fff" d="M0 0h59v59H0z"/></clipPath></defs></svg>