<svg width="82" height="76" fill="none" xmlns="http://www.w3.org/2000/svg"><path d="M67.769 58.952h0L54.883 46.417c3.351-3.763 5.4-8.663 5.4-14.04v0C60.28 20.503 50.39 10.9 38.217 10.9s-22.062 9.602-22.062 21.478c0 11.875 9.89 21.477 22.062 21.477 5.102 0 9.796-1.692 13.534-4.523l12.972 12.62a2.19 2.19 0 003.043 0c.85-.826.85-2.173.002-3zm-29.55-9.324c-9.814 0-17.745-7.736-17.745-17.25 0-9.515 7.931-17.25 17.744-17.25 9.813 0 17.745 7.735 17.745 17.25 0 9.514-7.931 17.25-17.745 17.25z" fill="#17BA9B" stroke="#17BA9B"/><path d="M52 46.5l14.5 14" stroke="#F90" stroke-width="5.5" stroke-linecap="round"/></svg>