<svg width="59" height="59" fill="none" xmlns="http://www.w3.org/2000/svg"><g clip-path="url(#clip0)"><path d="M42.456 12.314l-5.22-8.941a1.848 1.848 0 00-1.133-.858 1.866 1.866 0 00-1.406.204L18.742 12.29l23.713.023z" fill="#F90"/><path d="M7.375 14.75a2.466 2.466 0 01-2.458-2.459 2.466 2.466 0 012.458-2.458h8.285l8.21-4.917H7.375c-3.638 0-6.662 2.655-7.252 6.146-.05.197-.123.394-.123.615v37.49c0 4.056 3.319 7.374 7.375 7.374h41.792a4.931 4.931 0 004.916-4.916v-4.917h-6.145c-6.097 0-11.063-4.966-11.063-11.062 0-6.097 4.966-11.063 11.063-11.063h6.145v-4.916a4.931 4.931 0 00-4.916-4.917H7.375zm39.333-4.917a4.908 4.908 0 00-4.253-4.867l4.253 7.325V9.833z" fill="#17BA9B"/><path d="M57.156 28.271h-9.218c-4.067 0-7.376 3.309-7.376 7.375s3.31 7.375 7.376 7.375h9.218A1.844 1.844 0 0059 41.177V30.115a1.844 1.844 0 00-1.844-1.844zm-9.218 9.833a2.46 2.46 0 11.001-4.918 2.46 2.46 0 01-.002 4.918z" fill="#F90"/></g><defs><clipPath id="clip0"><path fill="#fff" d="M0 0h59v59H0z"/></clipPath></defs></svg>