<svg width="26" height="26" fill="none" xmlns="http://www.w3.org/2000/svg"><path d="M1.03 24.97h0a.952.952 0 001.35 0l5.558-5.559a10.476 10.476 0 006.759 2.448c2.818 0 5.47-1.099 7.463-3.092a10.487 10.487 0 003.09-7.463c0-2.818-1.097-5.47-3.09-7.463A10.487 10.487 0 0014.697.75c-2.819 0-5.47 1.098-7.463 3.091a10.487 10.487 0 00-3.092 7.463c0 2.498.863 4.865 2.447 6.758l-5.559 5.56a.954.954 0 000 1.349zm19.78-7.552c-3.37 3.372-8.856 3.371-12.227 0-3.371-3.37-3.371-8.857 0-12.228a8.618 8.618 0 016.114-2.528A8.62 8.62 0 0120.81 5.19c3.37 3.371 3.37 8.857 0 12.228z" fill="#fff" stroke="#fff" stroke-width=".5"/></svg>