<svg width="86" height="71" fill="none" xmlns="http://www.w3.org/2000/svg"><path d="M25.363 5.04h.84a2.52 2.52 0 000-5.04H12.766a2.52 2.52 0 000 5.04h.84v10.67l11.756-7.84V5.04zm21.83-.075a7.54 7.54 0 00-8.386 0L2.6 29.103a5.462 5.462 0 00-2.432 4.544c0 4.363 4.862 6.965 8.492 4.545L43 15.3l34.34 22.893c3.63 2.42 8.492-.182 8.492-4.545a5.46 5.46 0 00-2.432-4.544L47.193 4.965z" fill="#19BA9B"/><path d="M43 21.355L10.246 43.191v27.692h65.508V43.19L43 21.355zm14.72 32.157L44.781 66.45a2.511 2.511 0 01-1.782.737 2.51 2.51 0 01-1.782-.738L28.282 53.512c-4.55-4.55-4.55-11.952 0-16.501 3.994-3.995 10.188-4.482 14.719-1.462 4.531-3.02 10.725-2.532 14.72 1.462 4.549 4.55 4.549 11.952 0 16.5z" fill="#19BA9B"/><path d="M37.545 42.266l1.955-2.93a6.641 6.641 0 00-7.656 1.238 6.636 6.636 0 000 9.375l6.395 6.395 3.413-5.122-4.108-6.16a2.52 2.52 0 01.001-2.796zm7.236-1.692c-.04.04-.083.077-.125.114l-1.987 2.977 4.107 6.159a2.52 2.52 0 010 2.795l-4.903 7.359L43 61.105l11.156-11.156a6.636 6.636 0 000-9.375 6.636 6.636 0 00-9.375 0z" fill="#F90"/></svg>