<svg width="99" height="37" fill="none" xmlns="http://www.w3.org/2000/svg"><path d="M17.275 21.156a7.468 7.468 0 00-7.468 7.468c0 .318.026.631.066.938.463 3.681 3.596 6.528 7.401 6.528a7.467 7.467 0 007.437-6.83c.017-.209.031-.422.031-.637a7.466 7.466 0 00-7.467-7.467zm-3.738 4.654l1.522 1.523a2.578 2.578 0 00-.27.656h-2.147c.11-.812.421-1.554.895-2.179zm-.905 3.472h2.163c.061.23.151.448.271.648l-1.526 1.525a4.672 4.672 0 01-.908-2.173zm3.997 3.981a4.652 4.652 0 01-2.166-.899l1.518-1.519c.2.117.42.203.648.263v2.155zm0-7.123a2.594 2.594 0 00-.66.275l-1.52-1.521a4.64 4.64 0 012.18-.902v2.148zm1.293-2.15a4.648 4.648 0 012.181.903l-1.52 1.521a2.594 2.594 0 00-.66-.275V23.99zm0 9.271v-2.152a2.55 2.55 0 00.647-.264l1.52 1.519a4.654 4.654 0 01-2.167.897zm3.092-1.799l-1.53-1.533a2.52 2.52 0 00.277-.646h2.146a4.659 4.659 0 01-.893 2.179zm-1.25-3.473a2.615 2.615 0 00-.27-.656l1.523-1.523c.471.625.782 1.367.894 2.18h-2.147v-.001zm59.52-6.833a7.468 7.468 0 00-7.468 7.468c0 .318.026.631.066.938.463 3.681 3.596 6.528 7.4 6.528 3.908 0 7.112-3.004 7.438-6.83.017-.209.03-.422.03-.637a7.465 7.465 0 00-7.466-7.467zm-3.738 4.654l1.52 1.523a2.578 2.578 0 00-.27.656H74.65a4.624 4.624 0 01.896-2.179zm-.904 3.472h2.163c.06.23.15.448.27.648l-1.524 1.525a4.633 4.633 0 01-.91-2.173zm3.996 3.981a4.652 4.652 0 01-2.166-.899l1.518-1.519c.2.117.419.203.648.263v2.155zm0-7.123a2.594 2.594 0 00-.66.275l-1.521-1.521a4.636 4.636 0 012.18-.902v2.148zm1.294-2.15a4.648 4.648 0 012.18.903l-1.52 1.521a2.524 2.524 0 00-.66-.275V23.99zm0 9.271v-2.152a2.55 2.55 0 00.647-.264l1.519 1.519a4.658 4.658 0 01-2.166.897zm3.09-1.799l-1.53-1.531c.12-.202.218-.416.278-.647h2.146a4.65 4.65 0 01-.893 2.178zm-1.25-3.473a2.578 2.578 0 00-.27-.656l1.523-1.523c.472.625.782 1.367.895 2.18h-2.147v-.001z" fill="#F90"/><path fill-rule="evenodd" clip-rule="evenodd" d="M47.586 29.681l22.87-.46-.023-.12c-.014-.075-.029-.15-.038-.226a8.565 8.565 0 01-.078-1.125c0-4.945 4.022-8.968 8.968-8.968s8.969 4.022 8.969 8.968l-.002.035-.001.018.19-.016 7.61-1.433s2.916-1.552 2.916-5.822c0-2.848-1.75-4.118-1.75-4.118v-5.526a1.8 1.8 0 00-1.524-1.78c-2.107-.33-5.842-.952-7.52-1.47-.917-.282-2.834-1.028-5.033-1.885-3.574-1.391-7.896-3.074-9.888-3.531a82.94 82.94 0 01-.648-.153C70.867 1.655 67.513.855 63.247.38l-1.16 2.172c5.24.38 8.155 1.507 8.155 1.507l2.237 3.61-.763 2.745-14.084.473L47.586 29.68zM54.356.045c-4.072.166-8.44.818-12.747 2.312-1.24.43-4.767 2.038-8.737 3.849-3.563 1.625-7.482 3.412-10.425 4.657-1.833.04-19.976 3.822-20.942 6.414C.635 19.61.303 20.863.115 21.57l-.057.216c-.178.658 0 3.807 1.348 6 1.374.777 4.019 1.299 7.077 1.649l-.02-.108a6.27 6.27 0 01-.077-.452 8.6 8.6 0 01-.078-1.125c0-4.945 4.022-8.97 8.968-8.97s8.968 4.024 8.968 8.97c0 .254-.017.506-.036.754a8.728 8.728 0 01-.292 1.613h.024l12.477-.251 9.912-18.547-11.896.365c.306-2.491-1.17-3.05-1.17-3.05 4.96-4.501 13.696-5.74 17.75-6.077L54.355.045zm21.68 10.317h4.22a2.354 2.354 0 00-1.231-2.508 79.895 79.895 0 00-7.21-3.287l4.22 5.795z" fill="#19BA9B"/></svg>