<svg width="66" height="66" fill="none" xmlns="http://www.w3.org/2000/svg"><path d="M44.048 5.015a.833.833 0 011.162.18l6.265 8.547h5.447l-8.17-11.144C47.114.364 43.692-.168 41.45 1.475L38.494 3.64l2.597 3.543 2.957-2.169zm-15.107.002a.829.829 0 011.163.178l6.266 8.547h5.446L33.647 2.598C32.007.364 28.59-.168 26.344 1.474L9.604 13.742h7.43l11.907-8.725z" fill="#F90"/><path d="M35.444 41.809c0-5.377 4.374-9.752 9.75-9.752h16.501v-9.904a4.02 4.02 0 00-4.018-4.02H4.018A4.02 4.02 0 000 22.154v39.31c0 2.22 1.8 4.02 4.018 4.02h53.66c2.218 0 4.017-1.8 4.017-4.02V51.56h-16.5c-5.377 0-9.75-4.375-9.75-9.752z" fill="#19BA9B"/><path d="M63.867 35.351H45.195a6.457 6.457 0 00-6.456 6.458 6.457 6.457 0 006.456 6.457h18.672A2.134 2.134 0 0066 46.134v-8.65a2.134 2.134 0 00-2.133-2.133z" fill="#F90"/></svg>