<svg width="243" height="740" fill="none" xmlns="http://www.w3.org/2000/svg"><g clip-path="url(#clip0)" stroke="#fff" stroke-miterlimit="10"><path d="M137.365 739.743V58.871c0-31.002 26.312-56.19 57.654-56.19 24.765 0 46.433 20.15 46.433 44.952 0 19.763-16.251 36.039-35.985 36.039-15.865 0-29.021-13.176-29.021-29.064 0-12.788 9.674-19.764 18.186-19.764 8.126 0 15.865 5.426 15.865 15.889M1.935 96.46v643.283M36.76 96.46v643.283M67.715 96.46v643.283M102.54 96.46v643.283M0 75.146h108.344M0 40.27h108.344M0 5.393h108.344"/></g><defs><clipPath id="clip0"><path fill="#fff" transform="translate(0 .743)" d="M0 0h243v739H0z"/></clipPath></defs></svg>