<svg width="24" height="25" fill="none" xmlns="http://www.w3.org/2000/svg"><path d="M12 2.771c-6.627 0-12 5.373-12 12a11.95 11.95 0 002.72 7.608c.263-2.1 2.36-3.875 5.3-4.716 1.075 1 2.463 1.608 3.98 1.608 1.482 0 2.842-.577 3.906-1.536 2.966.915 5.018 2.794 5.085 4.98A11.953 11.953 0 0024 14.77c0-6.627-5.372-12-12-12zm0 15.079c-.766 0-1.488-.21-2.129-.575-1.544-.879-2.608-2.677-2.608-4.754 0-2.938 2.125-5.33 4.737-5.33s4.737 2.392 4.737 5.33c0 2.108-1.097 3.93-2.68 4.793-.623.34-1.32.536-2.057.536z" fill="#17BA9B"/></svg>