<svg width="21" height="21" fill="none" xmlns="http://www.w3.org/2000/svg"><path d="M2.233 9.84a.984.984 0 00-.235.026v1.66a.865.865 0 00.18.015c.476.012.791-.273.791-.892.004-.537-.284-.817-.736-.81z" fill="#19BA9B"/><path d="M12.81 19.187c.027.002.055.004.083.004h6.358a1.35 1.35 0 001.348-1.349V3.104a1.35 1.35 0 00-1.348-1.349h-6.358c-.028 0-.056.003-.084.004V0L.4 1.656v17.645L12.81 21v-1.813zm0-10.658h6.702v4.56h-6.703v-4.56zm4.514-.386h-4.515V6.34h4.515v1.803zM19.25 18.42h-6.358c-.029 0-.056-.004-.084-.008v-4.938h7.02v4.369a.58.58 0 01-.578.578zM12.893 2.527h6.358a.58.58 0 01.578.578v5.04h-2.12v-2.19h-4.9v-3.42c.028-.004.055-.008.084-.008zm-9.747 9.156c-.25.221-.627.318-1.08.305a3.968 3.968 0 01-.58-.053V9.467c.186-.038.431-.063.693-.069.44-.01.73.07.96.254.25.197.407.517.407.978 0 .501-.169.844-.4 1.052zm1.83.402c-.75-.02-1.18-.622-1.18-1.371 0-.789.474-1.39 1.223-1.409.801-.02 1.25.603 1.25 1.364 0 .904-.531 1.438-1.293 1.416zm3.134-.449a1.64 1.64 0 00.548-.084l.1.511c-.122.057-.395.113-.747.104-.975-.028-1.465-.638-1.465-1.428 0-.946.671-1.489 1.53-1.51.34-.009.6.053.718.11l-.136.52a1.428 1.428 0 00-.553-.098c-.513.008-.904.318-.904.943 0 .562.333.921.909.932zm2.73.566l-.286-.547c-.117-.21-.19-.365-.279-.537h-.009c-.065.17-.143.323-.239.527l-.255.527-.78-.021.875-1.465-.843-1.433.784-.02.27.533c.091.179.16.323.234.49h.01c.074-.19.134-.323.213-.496l.267-.55.83-.02-.905 1.48.954 1.554-.841-.022z" fill="#19BA9B"/><path d="M5.004 9.788c-.39.006-.615.396-.615.914 0 .52.232.892.618.9.396.007.625-.385.625-.914 0-.49-.225-.906-.628-.9zm8.861-.698a.257.257 0 110 .514.257.257 0 010-.514zm4.569.16h-3.918v.193h3.918v-.192zm-4.569.772a.257.257 0 110 .513.257.257 0 010-.513zm4.569.16h-3.918v.193h3.918v-.193zm-4.569.841a.257.257 0 110 .514.257.257 0 010-.514zm4.569.161h-3.918v.193h3.918v-.193zm-4.569.786a.257.257 0 110 .515.257.257 0 010-.514zm4.569.161h-3.918v.193h3.918v-.193z" fill="#19BA9B"/></svg>