<svg width="21" height="21" fill="none" xmlns="http://www.w3.org/2000/svg"><path d="M5.803 8.83a1.811 1.811 0 00-.412.044v2.703c.077.02.202.022.315.024.835.023 1.389-.442 1.389-1.45.006-.877-.499-1.333-1.292-1.32z" fill="#F90"/><path d="M12.81 19.187c.027.001.055.004.083.004h6.358a1.35 1.35 0 001.349-1.349V3.104a1.35 1.35 0 00-1.349-1.349h-6.358c-.028 0-.056.003-.083.004V0L.4 1.656v17.645L12.81 21v-1.813zm6.441-.767h-6.358a.57.57 0 01-.083-.008v-5.783c1.324-.229 3.164-.402 4.755-.028l.188.365c.76 1.436 1.571 1.427 1.885 1.356.072-.016.11-.034.11-.034l.043-.023c.014-.009.025-.02.038-.03v3.608a.58.58 0 01-.578.578zm-5.902-6.476a42.49 42.49 0 002.318-3.116l.002.004.006-.008c.406.857 1.077 2.184 1.539 3.09l-.002-.001.016.03c-1.313-.224-2.723-.142-3.882.018l.017-.02-.014.003zm2.342-5.666c.04-.07.098-.09.203-.085.002 0 .21.014.287.157.047.084.115.353-.252 1.008 0 0-.047.08-.136.222-.206-.722-.192-1.143-.102-1.302zm2.651 6.56c.377.144.715.323 1.011.534.085.12.164.294.15.377l-.004.011c-.122.023-.605.038-1.157-.923zM12.893 2.525h6.358c.319 0 .578.26.578.578v9.94a1.347 1.347 0 00-.043-.058l-.024-.032-.032-.024c-.494-.36-1.088-.637-1.77-.825-.485-.948-1.49-2.924-1.913-3.85.244-.377.376-.597.382-.607.381-.68.465-1.21.254-1.585-.191-.339-.572-.44-.767-.447-.314-.014-.582.12-.728.376-.222.392-.176 1.077.138 2.036.013.044.036.101.065.173a41.947 41.947 0 01-2.582 3.488V2.534c.028-.004.056-.008.084-.008zM3.58 10.38c-.294.29-.725.418-1.223.413a1.985 1.985 0 01-.285-.02v1.416l-.815-.022V8.3a6.315 6.315 0 011.117-.108c.52-.013.896.085 1.15.295.244.199.41.533.41.93 0 .398-.126.735-.354.963zm3.826 1.454c-.44.359-1.102.516-1.896.493a7.557 7.557 0 01-1.017-.089V8.226a7.818 7.818 0 011.214-.114c.774-.02 1.283.113 1.687.411.438.32.717.842.717 1.597 0 .818-.297 1.377-.705 1.715zM8.75 8.07l2.742-.065v.824l-1.744.025v.995l1.628-.004v.817l-1.628-.011v1.751l-.998-.027V8.07z" fill="#F90"/><path d="M2.417 8.87c-.17.003-.285.022-.346.04v1.17c.07.018.159.024.28.024.448 0 .726-.244.726-.654 0-.37-.24-.586-.66-.58z" fill="#F90"/></svg>