<svg width="20" height="20" fill="none" xmlns="http://www.w3.org/2000/svg"><g clip-path="url(#clip0)" fill="#19BA9B"><path d="M19.85 9.61c-.178-.2-4.472-4.883-9.85-4.883C4.622 4.727.328 9.41.15 9.609c-.2.223-.2.56 0 .782.178.199 4.472 4.882 9.85 4.882 5.378 0 9.672-4.683 9.85-4.882.2-.223.2-.56 0-.782zM10 14.101A4.107 4.107 0 015.898 10 4.107 4.107 0 0110 5.898 4.107 4.107 0 0114.102 10 4.107 4.107 0 0110 14.102z"/><path d="M10.586 8.828c0-.59.293-1.108.738-1.427A2.9 2.9 0 0010 7.071 2.933 2.933 0 007.07 10 2.933 2.933 0 0010 12.93a2.929 2.929 0 002.88-2.436 1.748 1.748 0 01-2.294-1.666z"/></g><defs><clipPath id="clip0"><path fill="#fff" d="M0 0h20v20H0z"/></clipPath></defs></svg>