<svg width="21" height="21" fill="none" xmlns="http://www.w3.org/2000/svg"><path d="M13.533 16.4H7.467a.7.7 0 000 1.4h6.066a.7.7 0 100-1.4zm0-2.208H7.467a.7.7 0 000 1.4h6.066a.7.7 0 100-1.4z" fill="#19BA9B"/><path d="M19.367 5.492h-2.228V1.441a.7.7 0 00-.7-.7H4.561a.7.7 0 00-.7.7v4.051H1.633C.733 5.492 0 6.225 0 7.126v7.042c0 .9.733 1.634 1.633 1.634h2.228v3.757a.7.7 0 00.7.7h11.878a.7.7 0 00.7-.7v-3.758h2.228c.9 0 1.633-.732 1.633-1.633V7.126c0-.9-.733-1.634-1.633-1.634zM5.26 2.141h10.478v3.351H5.261V2.141zm10.478 16.718H5.261v-5.727h10.478v5.727zm.7-9.256h-1.781a.7.7 0 010-1.4h1.781a.7.7 0 010 1.4z" fill="#19BA9B"/></svg>