<svg width="16" height="16" fill="none" xmlns="http://www.w3.org/2000/svg"><path d="M4.421 6.728a1.38 1.38 0 00-.314.033v2.06c.059.015.155.016.24.018.636.017 1.058-.337 1.058-1.105.005-.668-.38-1.015-.984-1.006z" fill="#17BA9B"/><path d="M9.76 14.619l.063.003h4.844c.567 0 1.028-.461 1.028-1.028V2.364c0-.566-.461-1.027-1.028-1.027H9.823l-.063.003V0L.305 1.262v13.444L9.76 16v-1.381zm4.907-.584H9.823c-.021 0-.042-.004-.063-.007V9.622c1.01-.174 2.41-.306 3.623-.021l.144.278c.578 1.094 1.196 1.087 1.435 1.033a.452.452 0 00.084-.026l.033-.017.029-.023v2.748a.44.44 0 01-.44.44zM10.171 9.1a32.384 32.384 0 001.766-2.374l.001.004.005-.007c.31.653.82 1.664 1.172 2.354l.011.023c-1-.171-2.074-.109-2.958.013l.013-.015-.01.002zm1.784-4.317c.03-.054.075-.068.155-.064.001 0 .16.01.218.119.036.064.088.27-.191.768l-.105.169c-.156-.55-.146-.87-.077-.992zm2.02 4.998c.287.11.545.246.77.407.065.092.125.225.114.287a.026.026 0 01-.003.01c-.092.016-.46.028-.88-.704zM9.823 1.925h4.844a.44.44 0 01.44.44v7.573a1.027 1.027 0 00-.032-.044l-.018-.024-.025-.018a4.132 4.132 0 00-1.348-.629c-.37-.722-1.136-2.228-1.458-2.933.187-.288.287-.455.291-.463.29-.518.354-.922.194-1.207-.146-.259-.436-.336-.584-.341a.582.582 0 00-.555.287c-.17.298-.134.82.105 1.55.01.034.027.078.05.132A31.991 31.991 0 019.76 8.906V1.93a.434.434 0 01.063-.006zM2.727 7.909c-.224.222-.552.319-.932.315-.083 0-.159-.006-.217-.015v1.079l-.62-.017V6.324c.191-.04.463-.073.85-.082.396-.01.682.065.876.225a.905.905 0 01.312.709c0 .303-.096.56-.27.733zm2.915 1.108c-.336.274-.84.393-1.445.376a5.755 5.755 0 01-.774-.068V6.267c.248-.047.576-.078.925-.087.589-.014.977.086 1.285.314.334.244.546.642.546 1.216 0 .623-.227 1.05-.537 1.307zM6.667 6.15l2.088-.05v.628l-1.328.02v.757l1.24-.003v.622l-1.24-.008V9.45l-.76-.02V6.15z" fill="#17BA9B"/><path d="M1.842 6.758c-.13.002-.218.017-.264.031v.891a.877.877 0 00.213.018c.341 0 .554-.185.554-.498 0-.282-.183-.447-.503-.442z" fill="#17BA9B"/></svg>