<svg width="156" height="167" fill="none" xmlns="http://www.w3.org/2000/svg"><g filter="url(#filter0_d)"><path d="M10 10h116c11.046 0 20 8.954 20 20v107c0 11.046-8.954 20-20 20H30c-11.046 0-20-8.954-20-20V10z" fill="#fff"/><path d="M11 11h115c10.493 0 19 8.507 19 19v107c0 10.493-8.507 19-19 19H30c-10.493 0-19-8.507-19-19V11z" stroke="#17BA9B" stroke-width="2"/></g><path d="M95.758 116.071a4.982 4.982 0 01-2.736 1.921l-5.497 1.501a4.882 4.882 0 01-4.143-.705 4.905 4.905 0 01-2.093-3.614l-.482-5.676a4.862 4.862 0 01.86-3.268l.204-.292H62.263c-1.582 0-2.864-1.304-2.864-2.882 0-1.584 1.282-2.888 2.864-2.888h23.733l5.304-7.576H62.263c-1.582 0-2.864-1.304-2.864-2.886s1.282-2.886 2.864-2.886l33.121-.085 12.42-17.809V55.74c0-2.167-1.677-3.917-3.838-3.917h-9.508v7.524c0 3.553-2.904 6.362-6.45 6.362H68.885c-3.554 0-6.358-2.811-6.358-6.362v-7.524h-9.61A3.914 3.914 0 0049 55.74v67.288c0 2.167 1.754 4.013 3.917 4.013h51.045c2.167 0 3.84-1.848 3.84-4.013v-24.06L95.758 116.07zM62.263 73.47h32.358c1.579 0 2.863 1.302 2.863 2.884 0 1.582-1.284 2.886-2.862 2.886h-32.36c-1.582 0-2.864-1.304-2.864-2.886s1.282-2.884 2.864-2.884z" fill="#19BA9B"/><path d="M68.938 61.925h19.105a2.624 2.624 0 002.622-2.624V48.313a2.624 2.624 0 00-2.622-2.624h-2.879a6.726 6.726 0 00-13.448 0h-2.778a2.622 2.622 0 00-2.623 2.624V59.3a2.623 2.623 0 002.623 2.626zm9.504-19.2a2.996 2.996 0 012.997 2.966h-6a3.002 3.002 0 013.003-2.965zm53.531 13.963a1.87 1.87 0 00-.773-1.2l-4.783-3.333a1.847 1.847 0 00-1.062-.335c-.583 0-1.165.276-1.521.794l-33.885 48.59 7.827 5.46 33.889-48.589c.28-.404.392-.902.308-1.387zm-47.363 52.45l.492 5.706c.023.329.198.623.465.812.189.13.411.205.632.205.097 0 .195-.014.29-.042l5.526-1.513a1.12 1.12 0 00.617-.433l2.074-2.975-7.833-5.461-2.075 2.974a1.08 1.08 0 00-.187.727z" fill="#F90"/><defs><filter id="filter0_d" x="0" y="0" width="156" height="167" filterUnits="userSpaceOnUse" color-interpolation-filters="sRGB"><feFlood flood-opacity="0" result="BackgroundImageFix"/><feColorMatrix in="SourceAlpha" values="0 0 0 0 0 0 0 0 0 0 0 0 0 0 0 0 0 0 127 0"/><feOffset/><feGaussianBlur stdDeviation="5"/><feColorMatrix values="0 0 0 0 0.0901961 0 0 0 0 0.729412 0 0 0 0 0.607843 0 0 0 0.1 0"/><feBlend in2="BackgroundImageFix" result="effect1_dropShadow"/><feBlend in="SourceGraphic" in2="effect1_dropShadow" result="shape"/></filter></defs></svg>