<svg width="17" height="17" fill="none" xmlns="http://www.w3.org/2000/svg"><circle cx="8.5" cy="8.5" r="8" fill="#fff" stroke="#17BA9B"/><path d="M7.81 9.82V9.6c0-.247.027-.467.08-.66.06-.193.147-.36.26-.5a2.6 2.6 0 01.31-.33c.093-.08.22-.177.38-.29.16-.113.28-.203.36-.27a1.24 1.24 0 00.23-.3.898.898 0 00.11-.44c0-.267-.09-.48-.27-.64a.923.923 0 00-.65-.25.996.996 0 00-.67.25c-.193.16-.293.383-.3.67H6.28c.007-.473.127-.883.36-1.23.233-.353.523-.61.87-.77.347-.16.72-.24 1.12-.24.64 0 1.187.2 1.64.6.46.4.69.937.69 1.61 0 .227-.027.43-.08.61-.047.18-.127.34-.24.48a3.05 3.05 0 01-.29.32c-.08.073-.197.173-.35.3-.167.127-.29.227-.37.3-.08.073-.16.18-.24.32a.976.976 0 00-.11.46v.22H7.81zM7.77 12v-1.56h1.55V12H7.77z" fill="#17BA9B"/></svg>