<svg width="43" height="43" fill="none" xmlns="http://www.w3.org/2000/svg"><g clip-path="url(#clip0)" filter="url(#filter0_d)" fill="#fff"><path d="M29.027 23.577a12.353 12.353 0 002.469-6.95c.271-6.852-5.062-12.625-11.914-12.896C12.73 3.46 6.957 8.794 6.686 15.645 6.415 22.495 11.748 28.27 18.6 28.54a12.36 12.36 0 007.693-2.296l5.61 6.073a2.04 2.04 0 002.883.114 1.78 1.78 0 00.1-2.515l-5.859-6.34zm-10.321 2.292c-5.367-.212-9.56-4.751-9.348-10.118.212-5.367 4.751-9.56 10.118-9.349 5.367.213 9.56 4.752 9.348 10.119-.212 5.367-4.751 9.56-10.118 9.348z"/><path d="M20.472 15.043l.15-3.772a1 1 0 00-.96-1.038l-.674-.027a1 1 0 00-1.039.96l-.149 3.772-3.772-.15a1 1 0 00-1.039.96l-.026.674a1 1 0 00.96 1.038l3.771.15-.149 3.771a1 1 0 00.96 1.04l.673.026a1 1 0 001.04-.96l.148-3.772 3.772.15a1 1 0 001.039-.96l.027-.674a1 1 0 00-.96-1.038l-3.772-.15z"/></g><defs><clipPath id="clip0"><path fill="#fff" transform="rotate(2.266 -72.268 183.214)" d="M0 0h30v30H0z"/></clipPath><filter id="filter0_d" x="0" y="0" width="43.163" height="43.163" filterUnits="userSpaceOnUse" color-interpolation-filters="sRGB"><feFlood flood-opacity="0" result="BackgroundImageFix"/><feColorMatrix in="SourceAlpha" values="0 0 0 0 0 0 0 0 0 0 0 0 0 0 0 0 0 0 127 0"/><feOffset dy="3"/><feGaussianBlur stdDeviation="3"/><feColorMatrix values="0 0 0 0 0 0 0 0 0 0 0 0 0 0 0 0 0 0 0.22 0"/><feBlend in2="BackgroundImageFix" result="effect1_dropShadow"/><feBlend in="SourceGraphic" in2="effect1_dropShadow" result="shape"/></filter></defs></svg>